<?xml version="1.0" encoding="utf-8"?>
<!-- Generator: Adobe Illustrator 19.0.0, SVG Export Plug-In . SVG Version: 6.00 Build 0)  -->
<svg version="1.1" id="Ebene_1" xmlns="http://www.w3.org/2000/svg" xmlns:xlink="http://www.w3.org/1999/xlink" x="0px" y="0px"
	 viewBox="0 0 595.3 841.9" style="enable-background:new 0 0 595.3 841.9;" xml:space="preserve">
<style type="text/css">
	.st0{fill:#030304;}
	.st1{fill:#FFFFFF;}
	.st2{fill:none;stroke:#000000;stroke-width:0.5669;stroke-miterlimit:22.9256;}
</style>
<rect x="184" y="62.4" class="st0" width="85" height="85"/>
<rect x="198.2" y="76.6" class="st1" width="14.2" height="14.2"/>
<rect x="226.6" y="76.6" class="st1" width="21.3" height="14.2"/>
<rect x="240.7" y="76.6" class="st1" width="14.2" height="14.2"/>
<rect x="240.7" y="76.6" class="st1" width="14.2" height="21.3"/>
<rect x="212.4" y="90.7" class="st1" width="14.2" height="14.2"/>
<rect x="240.7" y="90.7" class="st1" width="14.2" height="14.2"/>
<rect x="240.7" y="90.7" class="st1" width="14.2" height="21.3"/>
<rect x="226.6" y="104.9" class="st1" width="21.3" height="14.2"/>
<rect x="226.6" y="104.9" class="st1" width="14.2" height="21.3"/>
<rect x="240.7" y="104.9" class="st1" width="14.2" height="14.2"/>
<rect x="226.6" y="119.1" class="st1" width="14.2" height="14.2"/>
<rect x="184" y="530.1" class="st0" width="85" height="85"/>
<rect x="198.2" y="544.3" class="st1" width="14.2" height="14.2"/>
<rect x="198.2" y="544.3" class="st1" width="14.2" height="21.3"/>
<rect x="240.7" y="544.3" class="st1" width="14.2" height="14.2"/>
<rect x="240.7" y="544.3" class="st1" width="14.2" height="21.3"/>
<rect x="198.2" y="558.4" class="st1" width="14.2" height="14.2"/>
<rect x="240.7" y="558.4" class="st1" width="14.2" height="14.2"/>
<rect x="212.4" y="572.6" class="st1" width="14.2" height="14.2"/>
<rect x="212.4" y="572.6" class="st1" width="14.2" height="21.3"/>
<rect x="212.4" y="586.8" class="st1" width="21.3" height="14.2"/>
<rect x="226.6" y="586.8" class="st1" width="14.2" height="14.2"/>
<rect x="184" y="374.2" class="st0" width="85" height="85"/>
<rect x="226.6" y="388.4" class="st1" width="21.3" height="14.2"/>
<rect x="226.6" y="388.4" class="st1" width="14.2" height="21.3"/>
<rect x="240.7" y="388.4" class="st1" width="14.2" height="14.2"/>
<rect x="240.7" y="388.4" class="st1" width="14.2" height="21.3"/>
<rect x="226.6" y="402.5" class="st1" width="21.3" height="14.2"/>
<rect x="226.6" y="402.5" class="st1" width="14.2" height="21.3"/>
<rect x="240.7" y="402.5" class="st1" width="14.2" height="14.2"/>
<rect x="226.6" y="416.7" class="st1" width="14.2" height="14.2"/>
<rect x="198.2" y="430.9" class="st1" width="21.3" height="14.2"/>
<rect x="212.4" y="430.9" class="st1" width="14.2" height="14.2"/>
<rect x="240.7" y="430.9" class="st1" width="14.2" height="14.2"/>
<rect x="184" y="218.3" class="st0" width="85" height="85"/>
<rect x="198.2" y="246.6" class="st1" width="21.3" height="14.2"/>
<rect x="198.2" y="246.6" class="st1" width="14.2" height="21.3"/>
<rect x="212.4" y="246.6" class="st1" width="21.3" height="14.2"/>
<rect x="226.6" y="246.6" class="st1" width="21.3" height="14.2"/>
<rect x="240.7" y="246.6" class="st1" width="14.2" height="14.2"/>
<rect x="240.7" y="246.6" class="st1" width="14.2" height="21.3"/>
<rect x="198.2" y="260.8" class="st1" width="14.2" height="14.2"/>
<rect x="198.2" y="260.8" class="st1" width="14.2" height="21.3"/>
<rect x="240.7" y="260.8" class="st1" width="14.2" height="14.2"/>
<rect x="198.2" y="275" class="st1" width="14.2" height="14.2"/>
<rect x="226.6" y="275" class="st1" width="14.2" height="14.2"/>
<rect x="155.7" y="34" class="st2" width="141.7" height="141.7"/>
<rect x="177" y="211.2" class="st2" width="99.2" height="99.2"/>
<rect x="155.7" y="501.7" class="st2" width="141.7" height="141.7"/>
<rect x="177" y="367.1" class="st2" width="99.2" height="99.2"/>
<g>
	<path d="M319.5,125.4V123h2.1v2.4H319.5z M319.5,140.2v-12.4h2.1v12.4H319.5z"/>
	<path d="M332.9,140.2v-1.6c-0.8,1.2-1.9,1.9-3.5,1.9c-1,0-1.9-0.3-2.7-0.8s-1.5-1.3-1.9-2.3s-0.7-2.1-0.7-3.4
		c0-1.2,0.2-2.4,0.6-3.4s1-1.8,1.9-2.3s1.8-0.8,2.8-0.8c0.8,0,1.4,0.2,2,0.5s1.1,0.7,1.4,1.2V123h2.1v17.2H332.9z M326.2,134
		c0,1.6,0.3,2.8,1,3.6s1.5,1.2,2.4,1.2c0.9,0,1.7-0.4,2.3-1.1s1-1.9,1-3.5c0-1.7-0.3-3-1-3.8s-1.5-1.2-2.4-1.2
		c-0.9,0-1.7,0.4-2.3,1.1S326.2,132.3,326.2,134z"/>
	<path d="M344.3,131.7c0-2,0.2-3.7,0.6-4.9s1-2.2,1.9-2.9s1.9-1,3.1-1c0.9,0,1.7,0.2,2.4,0.6s1.3,0.9,1.7,1.6s0.8,1.6,1.1,2.6
		s0.4,2.4,0.4,4.1c0,2-0.2,3.6-0.6,4.9s-1,2.2-1.9,2.9s-1.9,1-3.1,1c-1.7,0-3-0.6-3.9-1.8C344.8,137.2,344.3,134.9,344.3,131.7z
		 M346.4,131.7c0,2.8,0.3,4.7,1,5.6s1.5,1.4,2.4,1.4s1.8-0.5,2.4-1.4s1-2.8,1-5.6c0-2.8-0.3-4.7-1-5.6s-1.5-1.4-2.5-1.4
		c-1,0-1.7,0.4-2.3,1.2C346.8,126.9,346.4,128.9,346.4,131.7z"/>
	<path d="M358.7,140.2v-2.4h2.4v2.4c0,0.9-0.2,1.6-0.5,2.1s-0.8,1-1.5,1.3l-0.6-0.9c0.4-0.2,0.8-0.5,1-0.9s0.3-0.9,0.4-1.6H358.7z"
		/>
	<path d="M370.9,135.6l2.1-0.3c0.2,1.2,0.7,2.1,1.2,2.6s1.3,0.8,2.1,0.8c1,0,1.8-0.3,2.5-1s1-1.5,1-2.6c0-1-0.3-1.8-0.9-2.4
		s-1.4-0.9-2.4-0.9c-0.4,0-0.9,0.1-1.5,0.2l0.2-1.9c0.1,0,0.3,0,0.3,0c0.9,0,1.7-0.2,2.4-0.7s1.1-1.2,1.1-2.2c0-0.8-0.3-1.4-0.8-1.9
		s-1.2-0.8-2-0.8c-0.8,0-1.5,0.3-2.1,0.8s-0.9,1.3-1.1,2.3l-2.1-0.4c0.3-1.4,0.8-2.5,1.8-3.3s2.1-1.2,3.4-1.2c0.9,0,1.8,0.2,2.6,0.6
		s1.4,1,1.8,1.6s0.6,1.4,0.6,2.2c0,0.7-0.2,1.4-0.6,2s-1,1.1-1.8,1.5c1,0.2,1.8,0.7,2.4,1.5s0.8,1.7,0.8,2.8c0,1.5-0.5,2.8-1.6,3.8
		s-2.5,1.6-4.1,1.6c-1.5,0-2.8-0.4-3.8-1.3S371.1,137.1,370.9,135.6z"/>
	<path d="M384.3,131.7c0-2,0.2-3.7,0.6-4.9s1-2.2,1.9-2.9s1.9-1,3.1-1c0.9,0,1.7,0.2,2.4,0.6s1.3,0.9,1.7,1.6s0.8,1.6,1.1,2.6
		s0.4,2.4,0.4,4.1c0,2-0.2,3.6-0.6,4.9s-1,2.2-1.9,2.9s-1.9,1-3.1,1c-1.7,0-3-0.6-3.9-1.8C384.8,137.2,384.3,134.9,384.3,131.7z
		 M386.5,131.7c0,2.8,0.3,4.7,1,5.6s1.5,1.4,2.4,1.4s1.8-0.5,2.4-1.4s1-2.8,1-5.6c0-2.8-0.3-4.7-1-5.6s-1.5-1.4-2.5-1.4
		c-1,0-1.7,0.4-2.3,1.2C386.8,126.9,386.5,128.9,386.5,131.7z"/>
	<path d="M396.8,140.2l4.5-6.5l-4.2-6h2.6l1.9,2.9c0.4,0.6,0.6,1,0.9,1.4c0.3-0.5,0.7-1,0.9-1.4l2.1-2.9h2.5l-4.3,5.9l4.6,6.6h-2.6
		l-2.6-3.9l-0.7-1l-3.3,4.9H396.8z"/>
	<path d="M409.6,135.6l2.1-0.3c0.2,1.2,0.7,2.1,1.2,2.6s1.3,0.8,2.1,0.8c1,0,1.8-0.3,2.5-1s1-1.5,1-2.6c0-1-0.3-1.8-0.9-2.4
		s-1.4-0.9-2.4-0.9c-0.4,0-0.9,0.1-1.5,0.2l0.2-1.9c0.1,0,0.3,0,0.3,0c0.9,0,1.7-0.2,2.4-0.7s1.1-1.2,1.1-2.2c0-0.8-0.3-1.4-0.8-1.9
		s-1.2-0.8-2-0.8c-0.8,0-1.5,0.3-2.1,0.8s-0.9,1.3-1.1,2.3l-2.1-0.4c0.3-1.4,0.8-2.5,1.8-3.3s2.1-1.2,3.4-1.2c0.9,0,1.8,0.2,2.6,0.6
		s1.4,1,1.8,1.6s0.6,1.4,0.6,2.2c0,0.7-0.2,1.4-0.6,2s-1,1.1-1.8,1.5c1,0.2,1.8,0.7,2.4,1.5s0.8,1.7,0.8,2.8c0,1.5-0.5,2.8-1.6,3.8
		s-2.5,1.6-4.1,1.6c-1.5,0-2.8-0.4-3.8-1.3S409.8,137.1,409.6,135.6z"/>
	<path d="M423,131.7c0-2,0.2-3.7,0.6-4.9s1-2.2,1.9-2.9s1.9-1,3.1-1c0.9,0,1.7,0.2,2.4,0.6s1.3,0.9,1.7,1.6s0.8,1.6,1.1,2.6
		s0.4,2.4,0.4,4.1c0,2-0.2,3.6-0.6,4.9s-1,2.2-1.9,2.9s-1.9,1-3.1,1c-1.7,0-3-0.6-3.9-1.8C423.5,137.2,423,134.9,423,131.7z
		 M425.1,131.7c0,2.8,0.3,4.7,1,5.6s1.5,1.4,2.4,1.4s1.8-0.5,2.4-1.4s1-2.8,1-5.6c0-2.8-0.3-4.7-1-5.6s-1.5-1.4-2.5-1.4
		c-1,0-1.7,0.4-2.3,1.2C425.5,126.9,425.1,128.9,425.1,131.7z"/>
	<path d="M436.9,140.2v-12.4h1.9v1.7c0.4-0.6,0.9-1.1,1.6-1.5s1.4-0.6,2.2-0.6c0.9,0,1.7,0.2,2.3,0.6s1,0.9,1.2,1.6
		c1-1.5,2.3-2.2,3.8-2.2c1.2,0,2.2,0.3,2.8,1s1,1.7,1,3.2v8.5h-2.1v-7.8c0-0.8-0.1-1.5-0.2-1.8s-0.4-0.7-0.7-0.9s-0.8-0.3-1.3-0.3
		c-0.9,0-1.6,0.3-2.2,0.9s-0.9,1.5-0.9,2.8v7.2h-2.1v-8.1c0-0.9-0.2-1.6-0.5-2.1s-0.9-0.7-1.7-0.7c-0.6,0-1.1,0.2-1.6,0.5
		s-0.9,0.8-1.1,1.4s-0.3,1.5-0.3,2.6v6.5H436.9z"/>
	<path d="M456.9,140.2v-12.4h1.9v1.7c0.4-0.6,0.9-1.1,1.6-1.5s1.4-0.6,2.2-0.6c0.9,0,1.7,0.2,2.3,0.6s1,0.9,1.2,1.6
		c1-1.5,2.3-2.2,3.8-2.2c1.2,0,2.2,0.3,2.8,1s1,1.7,1,3.2v8.5h-2.1v-7.8c0-0.8-0.1-1.5-0.2-1.8s-0.4-0.7-0.7-0.9s-0.8-0.3-1.3-0.3
		c-0.9,0-1.6,0.3-2.2,0.9s-0.9,1.5-0.9,2.8v7.2h-2.1v-8.1c0-0.9-0.2-1.6-0.5-2.1s-0.9-0.7-1.7-0.7c-0.6,0-1.1,0.2-1.6,0.5
		s-0.9,0.8-1.1,1.4s-0.3,1.5-0.3,2.6v6.5H456.9z"/>
</g>
<g>
	<path d="M319.5,267.1v-2.4h2.1v2.4H319.5z M319.5,281.9v-12.4h2.1v12.4H319.5z"/>
	<path d="M332.9,281.9v-1.6c-0.8,1.2-1.9,1.9-3.5,1.9c-1,0-1.9-0.3-2.7-0.8s-1.5-1.3-1.9-2.3s-0.7-2.1-0.7-3.4
		c0-1.2,0.2-2.4,0.6-3.4s1-1.8,1.9-2.3s1.8-0.8,2.8-0.8c0.8,0,1.4,0.2,2,0.5s1.1,0.7,1.4,1.2v-6.2h2.1v17.2H332.9z M326.2,275.7
		c0,1.6,0.3,2.8,1,3.6s1.5,1.2,2.4,1.2c0.9,0,1.7-0.4,2.3-1.1s1-1.9,1-3.5c0-1.7-0.3-3-1-3.8s-1.5-1.2-2.4-1.2
		c-0.9,0-1.7,0.4-2.3,1.1S326.2,274,326.2,275.7z"/>
	<path d="M352.2,281.9h-2.1v-13.4c-0.5,0.5-1.2,1-2,1.5s-1.6,0.8-2.2,1.1v-2c1.2-0.6,2.2-1.2,3.1-2s1.5-1.6,1.9-2.3h1.4V281.9z"/>
	<path d="M358.7,281.9v-2.4h2.4v2.4c0,0.9-0.2,1.6-0.5,2.1s-0.8,1-1.5,1.3l-0.6-0.9c0.4-0.2,0.8-0.5,1-0.9s0.3-0.9,0.4-1.6H358.7z"
		/>
	<path d="M370.9,277.4l2.1-0.3c0.2,1.2,0.7,2.1,1.2,2.6s1.3,0.8,2.1,0.8c1,0,1.8-0.3,2.5-1s1-1.5,1-2.6c0-1-0.3-1.8-0.9-2.4
		s-1.4-0.9-2.4-0.9c-0.4,0-0.9,0.1-1.5,0.2l0.2-1.9c0.1,0,0.3,0,0.3,0c0.9,0,1.7-0.2,2.4-0.7s1.1-1.2,1.1-2.2c0-0.8-0.3-1.4-0.8-1.9
		s-1.2-0.8-2-0.8c-0.8,0-1.5,0.3-2.1,0.8s-0.9,1.3-1.1,2.3l-2.1-0.4c0.3-1.4,0.8-2.5,1.8-3.3s2.1-1.2,3.4-1.2c0.9,0,1.8,0.2,2.6,0.6
		s1.4,1,1.8,1.6s0.6,1.4,0.6,2.2c0,0.7-0.2,1.4-0.6,2s-1,1.1-1.8,1.5c1,0.2,1.8,0.7,2.4,1.5s0.8,1.7,0.8,2.8c0,1.5-0.5,2.8-1.6,3.8
		s-2.5,1.6-4.1,1.6c-1.5,0-2.8-0.4-3.8-1.3S371.1,278.8,370.9,277.4z"/>
	<path d="M384.3,273.4c0-2,0.2-3.7,0.6-4.9s1-2.2,1.9-2.9s1.9-1,3.1-1c0.9,0,1.7,0.2,2.4,0.6s1.3,0.9,1.7,1.6s0.8,1.6,1.1,2.6
		s0.4,2.4,0.4,4.1c0,2-0.2,3.6-0.6,4.9s-1,2.2-1.9,2.9s-1.9,1-3.1,1c-1.7,0-3-0.6-3.9-1.8C384.8,279,384.3,276.7,384.3,273.4z
		 M386.5,273.4c0,2.8,0.3,4.7,1,5.6s1.5,1.4,2.4,1.4s1.8-0.5,2.4-1.4s1-2.8,1-5.6c0-2.8-0.3-4.7-1-5.6s-1.5-1.4-2.5-1.4
		c-1,0-1.7,0.4-2.3,1.2C386.8,268.7,386.5,270.6,386.5,273.4z"/>
	<path d="M396.8,281.9l4.5-6.5l-4.2-6h2.6l1.9,2.9c0.4,0.6,0.6,1,0.9,1.4c0.3-0.5,0.7-1,0.9-1.4l2.1-2.9h2.5l-4.3,5.9l4.6,6.6h-2.6
		l-2.6-3.9l-0.7-1l-3.3,4.9H396.8z"/>
	<path d="M409.6,277.4l2.1-0.3c0.2,1.2,0.7,2.1,1.2,2.6s1.3,0.8,2.1,0.8c1,0,1.8-0.3,2.5-1s1-1.5,1-2.6c0-1-0.3-1.8-0.9-2.4
		s-1.4-0.9-2.4-0.9c-0.4,0-0.9,0.1-1.5,0.2l0.2-1.9c0.1,0,0.3,0,0.3,0c0.9,0,1.7-0.2,2.4-0.7s1.1-1.2,1.1-2.2c0-0.8-0.3-1.4-0.8-1.9
		s-1.2-0.8-2-0.8c-0.8,0-1.5,0.3-2.1,0.8s-0.9,1.3-1.1,2.3l-2.1-0.4c0.3-1.4,0.8-2.5,1.8-3.3s2.1-1.2,3.4-1.2c0.9,0,1.8,0.2,2.6,0.6
		s1.4,1,1.8,1.6s0.6,1.4,0.6,2.2c0,0.7-0.2,1.4-0.6,2s-1,1.1-1.8,1.5c1,0.2,1.8,0.7,2.4,1.5s0.8,1.7,0.8,2.8c0,1.5-0.5,2.8-1.6,3.8
		s-2.5,1.6-4.1,1.6c-1.5,0-2.8-0.4-3.8-1.3S409.8,278.8,409.6,277.4z"/>
	<path d="M423,273.4c0-2,0.2-3.7,0.6-4.9s1-2.2,1.9-2.9s1.9-1,3.1-1c0.9,0,1.7,0.2,2.4,0.6s1.3,0.9,1.7,1.6s0.8,1.6,1.1,2.6
		s0.4,2.4,0.4,4.1c0,2-0.2,3.6-0.6,4.9s-1,2.2-1.9,2.9s-1.9,1-3.1,1c-1.7,0-3-0.6-3.9-1.8C423.5,279,423,276.7,423,273.4z
		 M425.1,273.4c0,2.8,0.3,4.7,1,5.6s1.5,1.4,2.4,1.4s1.8-0.5,2.4-1.4s1-2.8,1-5.6c0-2.8-0.3-4.7-1-5.6s-1.5-1.4-2.5-1.4
		c-1,0-1.7,0.4-2.3,1.2C425.5,268.7,425.1,270.6,425.1,273.4z"/>
	<path d="M436.9,281.9v-12.4h1.9v1.7c0.4-0.6,0.9-1.1,1.6-1.5s1.4-0.6,2.2-0.6c0.9,0,1.7,0.2,2.3,0.6s1,0.9,1.2,1.6
		c1-1.5,2.3-2.2,3.8-2.2c1.2,0,2.2,0.3,2.8,1s1,1.7,1,3.2v8.5h-2.1v-7.8c0-0.8-0.1-1.5-0.2-1.8s-0.4-0.7-0.7-0.9s-0.8-0.3-1.3-0.3
		c-0.9,0-1.6,0.3-2.2,0.9s-0.9,1.5-0.9,2.8v7.2h-2.1v-8.1c0-0.9-0.2-1.6-0.5-2.1s-0.9-0.7-1.7-0.7c-0.6,0-1.1,0.2-1.6,0.5
		s-0.9,0.8-1.1,1.4s-0.3,1.5-0.3,2.6v6.5H436.9z"/>
	<path d="M456.9,281.9v-12.4h1.9v1.7c0.4-0.6,0.9-1.1,1.6-1.5s1.4-0.6,2.2-0.6c0.9,0,1.7,0.2,2.3,0.6s1,0.9,1.2,1.6
		c1-1.5,2.3-2.2,3.8-2.2c1.2,0,2.2,0.3,2.8,1s1,1.7,1,3.2v8.5h-2.1v-7.8c0-0.8-0.1-1.5-0.2-1.8s-0.4-0.7-0.7-0.9s-0.8-0.3-1.3-0.3
		c-0.9,0-1.6,0.3-2.2,0.9s-0.9,1.5-0.9,2.8v7.2h-2.1v-8.1c0-0.9-0.2-1.6-0.5-2.1s-0.9-0.7-1.7-0.7c-0.6,0-1.1,0.2-1.6,0.5
		s-0.9,0.8-1.1,1.4s-0.3,1.5-0.3,2.6v6.5H456.9z"/>
</g>
<g>
	<path d="M319.5,408.9v-2.4h2.1v2.4H319.5z M319.5,423.6v-12.4h2.1v12.4H319.5z"/>
	<path d="M332.9,423.6v-1.6c-0.8,1.2-1.9,1.9-3.5,1.9c-1,0-1.9-0.3-2.7-0.8s-1.5-1.3-1.9-2.3s-0.7-2.1-0.7-3.4
		c0-1.2,0.2-2.4,0.6-3.4s1-1.8,1.9-2.3s1.8-0.8,2.8-0.8c0.8,0,1.4,0.2,2,0.5s1.1,0.7,1.4,1.2v-6.2h2.1v17.2H332.9z M326.2,417.4
		c0,1.6,0.3,2.8,1,3.6s1.5,1.2,2.4,1.2c0.9,0,1.7-0.4,2.3-1.1s1-1.9,1-3.5c0-1.7-0.3-3-1-3.8s-1.5-1.2-2.4-1.2
		c-0.9,0-1.7,0.4-2.3,1.1S326.2,415.8,326.2,417.4z"/>
	<path d="M355.3,421.6v2H344c0-0.5,0.1-1,0.2-1.5c0.3-0.8,0.8-1.5,1.4-2.3s1.6-1.6,2.8-2.6c1.9-1.5,3.1-2.7,3.8-3.6s1-1.7,1-2.5
		c0-0.8-0.3-1.5-0.9-2.1s-1.4-0.9-2.3-0.9c-1,0-1.8,0.3-2.4,0.9s-0.9,1.5-0.9,2.5l-2.2-0.2c0.1-1.6,0.7-2.8,1.7-3.7s2.3-1.3,3.9-1.3
		c1.6,0,3,0.5,3.9,1.4s1.4,2,1.4,3.4c0,0.7-0.1,1.4-0.4,2s-0.7,1.4-1.4,2.1s-1.7,1.7-3.3,3c-1.3,1.1-2.1,1.8-2.4,2.2
		s-0.7,0.8-0.9,1.1H355.3z"/>
	<path d="M358.7,423.6v-2.4h2.4v2.4c0,0.9-0.2,1.6-0.5,2.1s-0.8,1-1.5,1.3l-0.6-0.9c0.4-0.2,0.8-0.5,1-0.9s0.3-0.9,0.4-1.6H358.7z"
		/>
	<path d="M370.9,419.1l2.1-0.3c0.2,1.2,0.7,2.1,1.2,2.6s1.3,0.8,2.1,0.8c1,0,1.8-0.3,2.5-1s1-1.5,1-2.6c0-1-0.3-1.8-0.9-2.4
		s-1.4-0.9-2.4-0.9c-0.4,0-0.9,0.1-1.5,0.2l0.2-1.9c0.1,0,0.3,0,0.3,0c0.9,0,1.7-0.2,2.4-0.7s1.1-1.2,1.1-2.2c0-0.8-0.3-1.4-0.8-1.9
		s-1.2-0.8-2-0.8c-0.8,0-1.5,0.3-2.1,0.8s-0.9,1.3-1.1,2.3l-2.1-0.4c0.3-1.4,0.8-2.5,1.8-3.3s2.1-1.2,3.4-1.2c0.9,0,1.8,0.2,2.6,0.6
		s1.4,1,1.8,1.6s0.6,1.4,0.6,2.2c0,0.7-0.2,1.4-0.6,2s-1,1.1-1.8,1.5c1,0.2,1.8,0.7,2.4,1.5s0.8,1.7,0.8,2.8c0,1.5-0.5,2.8-1.6,3.8
		s-2.5,1.6-4.1,1.6c-1.5,0-2.8-0.4-3.8-1.3S371.1,420.5,370.9,419.1z"/>
	<path d="M384.3,415.2c0-2,0.2-3.7,0.6-4.9s1-2.2,1.9-2.9s1.9-1,3.1-1c0.9,0,1.7,0.2,2.4,0.6s1.3,0.9,1.7,1.6s0.8,1.6,1.1,2.6
		s0.4,2.4,0.4,4.1c0,2-0.2,3.6-0.6,4.9s-1,2.2-1.9,2.9s-1.9,1-3.1,1c-1.7,0-3-0.6-3.9-1.8C384.8,420.7,384.3,418.4,384.3,415.2z
		 M386.5,415.2c0,2.8,0.3,4.7,1,5.6s1.5,1.4,2.4,1.4s1.8-0.5,2.4-1.4s1-2.8,1-5.6c0-2.8-0.3-4.7-1-5.6s-1.5-1.4-2.5-1.4
		c-1,0-1.7,0.4-2.3,1.2C386.8,410.4,386.5,412.3,386.5,415.2z"/>
	<path d="M396.8,423.6l4.5-6.5l-4.2-6h2.6l1.9,2.9c0.4,0.6,0.6,1,0.9,1.4c0.3-0.5,0.7-1,0.9-1.4l2.1-2.9h2.5l-4.3,5.9l4.6,6.6h-2.6
		l-2.6-3.9l-0.7-1l-3.3,4.9H396.8z"/>
	<path d="M409.6,419.1l2.1-0.3c0.2,1.2,0.7,2.1,1.2,2.6s1.3,0.8,2.1,0.8c1,0,1.8-0.3,2.5-1s1-1.5,1-2.6c0-1-0.3-1.8-0.9-2.4
		s-1.4-0.9-2.4-0.9c-0.4,0-0.9,0.1-1.5,0.2l0.2-1.9c0.1,0,0.3,0,0.3,0c0.9,0,1.7-0.2,2.4-0.7s1.1-1.2,1.1-2.2c0-0.8-0.3-1.4-0.8-1.9
		s-1.2-0.8-2-0.8c-0.8,0-1.5,0.3-2.1,0.8s-0.9,1.3-1.1,2.3l-2.1-0.4c0.3-1.4,0.8-2.5,1.8-3.3s2.1-1.2,3.4-1.2c0.9,0,1.8,0.2,2.6,0.6
		s1.4,1,1.8,1.6s0.6,1.4,0.6,2.2c0,0.7-0.2,1.4-0.6,2s-1,1.1-1.8,1.5c1,0.2,1.8,0.7,2.4,1.5s0.8,1.7,0.8,2.8c0,1.5-0.5,2.8-1.6,3.8
		s-2.5,1.6-4.1,1.6c-1.5,0-2.8-0.4-3.8-1.3S409.8,420.5,409.6,419.1z"/>
	<path d="M423,415.2c0-2,0.2-3.7,0.6-4.9s1-2.2,1.9-2.9s1.9-1,3.1-1c0.9,0,1.7,0.2,2.4,0.6s1.3,0.9,1.7,1.6s0.8,1.6,1.1,2.6
		s0.4,2.4,0.4,4.1c0,2-0.2,3.6-0.6,4.9s-1,2.2-1.9,2.9s-1.9,1-3.1,1c-1.7,0-3-0.6-3.9-1.8C423.5,420.7,423,418.4,423,415.2z
		 M425.1,415.2c0,2.8,0.3,4.7,1,5.6s1.5,1.4,2.4,1.4s1.8-0.5,2.4-1.4s1-2.8,1-5.6c0-2.8-0.3-4.7-1-5.6s-1.5-1.4-2.5-1.4
		c-1,0-1.7,0.4-2.3,1.2C425.5,410.4,425.1,412.3,425.1,415.2z"/>
	<path d="M436.9,423.6v-12.4h1.9v1.7c0.4-0.6,0.9-1.1,1.6-1.5s1.4-0.6,2.2-0.6c0.9,0,1.7,0.2,2.3,0.6s1,0.9,1.2,1.6
		c1-1.5,2.3-2.2,3.8-2.2c1.2,0,2.2,0.3,2.8,1s1,1.7,1,3.2v8.5h-2.1v-7.8c0-0.8-0.1-1.5-0.2-1.8s-0.4-0.7-0.7-0.9s-0.8-0.3-1.3-0.3
		c-0.9,0-1.6,0.3-2.2,0.9s-0.9,1.5-0.9,2.8v7.2h-2.1v-8.1c0-0.9-0.2-1.6-0.5-2.1s-0.9-0.7-1.7-0.7c-0.6,0-1.1,0.2-1.6,0.5
		s-0.9,0.8-1.1,1.4s-0.3,1.5-0.3,2.6v6.5H436.9z"/>
	<path d="M456.9,423.6v-12.4h1.9v1.7c0.4-0.6,0.9-1.1,1.6-1.5s1.4-0.6,2.2-0.6c0.9,0,1.7,0.2,2.3,0.6s1,0.9,1.2,1.6
		c1-1.5,2.3-2.2,3.8-2.2c1.2,0,2.2,0.3,2.8,1s1,1.7,1,3.2v8.5h-2.1v-7.8c0-0.8-0.1-1.5-0.2-1.8s-0.4-0.7-0.7-0.9s-0.8-0.3-1.3-0.3
		c-0.9,0-1.6,0.3-2.2,0.9s-0.9,1.5-0.9,2.8v7.2h-2.1v-8.1c0-0.9-0.2-1.6-0.5-2.1s-0.9-0.7-1.7-0.7c-0.6,0-1.1,0.2-1.6,0.5
		s-0.9,0.8-1.1,1.4s-0.3,1.5-0.3,2.6v6.5H456.9z"/>
</g>
<g>
	<path d="M319.5,564.8v-2.4h2.1v2.4H319.5z M319.5,579.5v-12.4h2.1v12.4H319.5z"/>
	<path d="M332.9,579.5V578c-0.8,1.2-1.9,1.9-3.5,1.9c-1,0-1.9-0.3-2.7-0.8s-1.5-1.3-1.9-2.3s-0.7-2.1-0.7-3.4c0-1.2,0.2-2.4,0.6-3.4
		s1-1.8,1.9-2.3s1.8-0.8,2.8-0.8c0.8,0,1.4,0.2,2,0.5s1.1,0.7,1.4,1.2v-6.2h2.1v17.2H332.9z M326.2,573.3c0,1.6,0.3,2.8,1,3.6
		s1.5,1.2,2.4,1.2c0.9,0,1.7-0.4,2.3-1.1s1-1.9,1-3.5c0-1.7-0.3-3-1-3.8s-1.5-1.2-2.4-1.2c-0.9,0-1.7,0.4-2.3,1.1
		S326.2,571.7,326.2,573.3z"/>
	<path d="M344.3,575l2.1-0.3c0.2,1.2,0.7,2.1,1.2,2.6s1.3,0.8,2.1,0.8c1,0,1.8-0.3,2.5-1s1-1.5,1-2.6c0-1-0.3-1.8-0.9-2.4
		s-1.4-0.9-2.4-0.9c-0.4,0-0.9,0.1-1.5,0.2l0.2-1.9c0.1,0,0.3,0,0.3,0c0.9,0,1.7-0.2,2.4-0.7s1.1-1.2,1.1-2.2c0-0.8-0.3-1.4-0.8-1.9
		s-1.2-0.8-2-0.8c-0.8,0-1.5,0.3-2.1,0.8s-0.9,1.3-1.1,2.3l-2.1-0.4c0.3-1.4,0.8-2.5,1.8-3.3s2.1-1.2,3.4-1.2c0.9,0,1.8,0.2,2.6,0.6
		s1.4,1,1.8,1.6s0.6,1.4,0.6,2.2c0,0.7-0.2,1.4-0.6,2s-1,1.1-1.8,1.5c1,0.2,1.8,0.7,2.4,1.5s0.8,1.7,0.8,2.8c0,1.5-0.5,2.8-1.6,3.8
		s-2.5,1.6-4.1,1.6c-1.5,0-2.8-0.4-3.8-1.3S344.4,576.4,344.3,575z"/>
	<path d="M358.7,579.5v-2.4h2.4v2.4c0,0.9-0.2,1.6-0.5,2.1s-0.8,1-1.5,1.3l-0.6-0.9c0.4-0.2,0.8-0.5,1-0.9s0.3-0.9,0.4-1.6H358.7z"
		/>
	<path d="M370.9,575l2.1-0.3c0.2,1.2,0.7,2.1,1.2,2.6s1.3,0.8,2.1,0.8c1,0,1.8-0.3,2.5-1s1-1.5,1-2.6c0-1-0.3-1.8-0.9-2.4
		s-1.4-0.9-2.4-0.9c-0.4,0-0.9,0.1-1.5,0.2l0.2-1.9c0.1,0,0.3,0,0.3,0c0.9,0,1.7-0.2,2.4-0.7s1.1-1.2,1.1-2.2c0-0.8-0.3-1.4-0.8-1.9
		s-1.2-0.8-2-0.8c-0.8,0-1.5,0.3-2.1,0.8s-0.9,1.3-1.1,2.3l-2.1-0.4c0.3-1.4,0.8-2.5,1.8-3.3s2.1-1.2,3.4-1.2c0.9,0,1.8,0.2,2.6,0.6
		s1.4,1,1.8,1.6s0.6,1.4,0.6,2.2c0,0.7-0.2,1.4-0.6,2s-1,1.1-1.8,1.5c1,0.2,1.8,0.7,2.4,1.5s0.8,1.7,0.8,2.8c0,1.5-0.5,2.8-1.6,3.8
		s-2.5,1.6-4.1,1.6c-1.5,0-2.8-0.4-3.8-1.3S371.1,576.4,370.9,575z"/>
	<path d="M384.3,571.1c0-2,0.2-3.7,0.6-4.9s1-2.2,1.9-2.9s1.9-1,3.1-1c0.9,0,1.7,0.2,2.4,0.6s1.3,0.9,1.7,1.6s0.8,1.6,1.1,2.6
		s0.4,2.4,0.4,4.1c0,2-0.2,3.6-0.6,4.9s-1,2.2-1.9,2.9s-1.9,1-3.1,1c-1.7,0-3-0.6-3.9-1.8C384.8,576.6,384.3,574.3,384.3,571.1z
		 M386.5,571.1c0,2.8,0.3,4.7,1,5.6s1.5,1.4,2.4,1.4s1.8-0.5,2.4-1.4s1-2.8,1-5.6c0-2.8-0.3-4.7-1-5.6s-1.5-1.4-2.5-1.4
		c-1,0-1.7,0.4-2.3,1.2C386.8,566.3,386.5,568.2,386.5,571.1z"/>
	<path d="M396.8,579.5l4.5-6.5l-4.2-6h2.6l1.9,2.9c0.4,0.6,0.6,1,0.9,1.4c0.3-0.5,0.7-1,0.9-1.4l2.1-2.9h2.5l-4.3,5.9l4.6,6.6h-2.6
		l-2.6-3.9l-0.7-1l-3.3,4.9H396.8z"/>
	<path d="M409.6,575l2.1-0.3c0.2,1.2,0.7,2.1,1.2,2.6s1.3,0.8,2.1,0.8c1,0,1.8-0.3,2.5-1s1-1.5,1-2.6c0-1-0.3-1.8-0.9-2.4
		s-1.4-0.9-2.4-0.9c-0.4,0-0.9,0.1-1.5,0.2l0.2-1.9c0.1,0,0.3,0,0.3,0c0.9,0,1.7-0.2,2.4-0.7s1.1-1.2,1.1-2.2c0-0.8-0.3-1.4-0.8-1.9
		s-1.2-0.8-2-0.8c-0.8,0-1.5,0.3-2.1,0.8s-0.9,1.3-1.1,2.3l-2.1-0.4c0.3-1.4,0.8-2.5,1.8-3.3s2.1-1.2,3.4-1.2c0.9,0,1.8,0.2,2.6,0.6
		s1.4,1,1.8,1.6s0.6,1.4,0.6,2.2c0,0.7-0.2,1.4-0.6,2s-1,1.1-1.8,1.5c1,0.2,1.8,0.7,2.4,1.5s0.8,1.7,0.8,2.8c0,1.5-0.5,2.8-1.6,3.8
		s-2.5,1.6-4.1,1.6c-1.5,0-2.8-0.4-3.8-1.3S409.8,576.4,409.6,575z"/>
	<path d="M423,571.1c0-2,0.2-3.7,0.6-4.9s1-2.2,1.9-2.9s1.9-1,3.1-1c0.9,0,1.7,0.2,2.4,0.6s1.3,0.9,1.7,1.6s0.8,1.6,1.1,2.6
		s0.4,2.4,0.4,4.1c0,2-0.2,3.6-0.6,4.9s-1,2.2-1.9,2.9s-1.9,1-3.1,1c-1.7,0-3-0.6-3.9-1.8C423.5,576.6,423,574.3,423,571.1z
		 M425.1,571.1c0,2.8,0.3,4.7,1,5.6s1.5,1.4,2.4,1.4s1.8-0.5,2.4-1.4s1-2.8,1-5.6c0-2.8-0.3-4.7-1-5.6s-1.5-1.4-2.5-1.4
		c-1,0-1.7,0.4-2.3,1.2C425.5,566.3,425.1,568.2,425.1,571.1z"/>
	<path d="M436.9,579.5v-12.4h1.9v1.7c0.4-0.6,0.9-1.1,1.6-1.5s1.4-0.6,2.2-0.6c0.9,0,1.7,0.2,2.3,0.6s1,0.9,1.2,1.6
		c1-1.5,2.3-2.2,3.8-2.2c1.2,0,2.2,0.3,2.8,1s1,1.7,1,3.2v8.5h-2.1v-7.8c0-0.8-0.1-1.5-0.2-1.8s-0.4-0.7-0.7-0.9s-0.8-0.3-1.3-0.3
		c-0.9,0-1.6,0.3-2.2,0.9s-0.9,1.5-0.9,2.8v7.2h-2.1v-8.1c0-0.9-0.2-1.6-0.5-2.1s-0.9-0.7-1.7-0.7c-0.6,0-1.1,0.2-1.6,0.5
		s-0.9,0.8-1.1,1.4s-0.3,1.5-0.3,2.6v6.5H436.9z"/>
	<path d="M456.9,579.5v-12.4h1.9v1.7c0.4-0.6,0.9-1.1,1.6-1.5s1.4-0.6,2.2-0.6c0.9,0,1.7,0.2,2.3,0.6s1,0.9,1.2,1.6
		c1-1.5,2.3-2.2,3.8-2.2c1.2,0,2.2,0.3,2.8,1s1,1.7,1,3.2v8.5h-2.1v-7.8c0-0.8-0.1-1.5-0.2-1.8s-0.4-0.7-0.7-0.9s-0.8-0.3-1.3-0.3
		c-0.9,0-1.6,0.3-2.2,0.9s-0.9,1.5-0.9,2.8v7.2h-2.1v-8.1c0-0.9-0.2-1.6-0.5-2.1s-0.9-0.7-1.7-0.7c-0.6,0-1.1,0.2-1.6,0.5
		s-0.9,0.8-1.1,1.4s-0.3,1.5-0.3,2.6v6.5H456.9z"/>
</g>
<g>
	<path d="M161.9,41v-0.6h0.5V41H161.9z M161.9,44.7v-3.1h0.5v3.1H161.9z"/>
	<path d="M165.3,44.7v-0.4c-0.2,0.3-0.5,0.5-0.9,0.5c-0.2,0-0.5-0.1-0.7-0.2s-0.4-0.3-0.5-0.6s-0.2-0.5-0.2-0.8
		c0-0.3,0.1-0.6,0.2-0.8s0.3-0.4,0.5-0.6s0.4-0.2,0.7-0.2c0.2,0,0.4,0,0.5,0.1s0.3,0.2,0.4,0.3v-1.5h0.5v4.3H165.3z M163.6,43.2
		c0,0.4,0.1,0.7,0.3,0.9s0.4,0.3,0.6,0.3c0.2,0,0.4-0.1,0.6-0.3s0.2-0.5,0.2-0.9c0-0.4-0.1-0.7-0.2-0.9s-0.4-0.3-0.6-0.3
		c-0.2,0-0.4,0.1-0.6,0.3S163.6,42.8,163.6,43.2z"/>
	<path d="M168.1,42.6c0-0.5,0.1-0.9,0.2-1.2s0.3-0.5,0.5-0.7s0.5-0.3,0.8-0.3c0.2,0,0.4,0,0.6,0.1s0.3,0.2,0.4,0.4s0.2,0.4,0.3,0.6
		s0.1,0.6,0.1,1c0,0.5-0.1,0.9-0.2,1.2s-0.3,0.5-0.5,0.7s-0.5,0.3-0.8,0.3c-0.4,0-0.7-0.1-1-0.4C168.2,44,168.1,43.4,168.1,42.6z
		 M168.6,42.6c0,0.7,0.1,1.2,0.2,1.4s0.4,0.4,0.6,0.4s0.4-0.1,0.6-0.4s0.2-0.7,0.2-1.4c0-0.7-0.1-1.2-0.2-1.4s-0.4-0.3-0.6-0.3
		c-0.2,0-0.4,0.1-0.6,0.3C168.7,41.4,168.6,41.9,168.6,42.6z"/>
</g>
<g>
	<path d="M160.9,195.6V195h0.5v0.6H160.9z M160.9,199.3v-3.1h0.5v3.1H160.9z"/>
	<path d="M164.2,199.3v-0.4c-0.2,0.3-0.5,0.5-0.9,0.5c-0.2,0-0.5-0.1-0.7-0.2s-0.4-0.3-0.5-0.6s-0.2-0.5-0.2-0.8
		c0-0.3,0.1-0.6,0.2-0.8s0.3-0.4,0.5-0.6s0.4-0.2,0.7-0.2c0.2,0,0.4,0,0.5,0.1s0.3,0.2,0.4,0.3V195h0.5v4.3H164.2z M162.6,197.7
		c0,0.4,0.1,0.7,0.3,0.9s0.4,0.3,0.6,0.3c0.2,0,0.4-0.1,0.6-0.3s0.2-0.5,0.2-0.9c0-0.4-0.1-0.7-0.2-0.9s-0.4-0.3-0.6-0.3
		c-0.2,0-0.4,0.1-0.6,0.3S162.6,197.3,162.6,197.7z"/>
	<path d="M169.1,199.3h-0.5v-3.4c-0.1,0.1-0.3,0.2-0.5,0.4s-0.4,0.2-0.6,0.3V196c0.3-0.1,0.6-0.3,0.8-0.5s0.4-0.4,0.5-0.6h0.3V199.3
		z"/>
</g>
<g>
	<path d="M159.7,351.4v-0.6h0.5v0.6H159.7z M159.7,355.1V352h0.5v3.1H159.7z"/>
	<path d="M163.1,355.1v-0.4c-0.2,0.3-0.5,0.5-0.9,0.5c-0.2,0-0.5-0.1-0.7-0.2s-0.4-0.3-0.5-0.6s-0.2-0.5-0.2-0.8
		c0-0.3,0.1-0.6,0.2-0.8s0.3-0.4,0.5-0.6s0.4-0.2,0.7-0.2c0.2,0,0.4,0,0.5,0.1s0.3,0.2,0.4,0.3v-1.5h0.5v4.3H163.1z M161.4,353.6
		c0,0.4,0.1,0.7,0.3,0.9s0.4,0.3,0.6,0.3c0.2,0,0.4-0.1,0.6-0.3s0.2-0.5,0.2-0.9c0-0.4-0.1-0.7-0.2-0.9s-0.4-0.3-0.6-0.3
		c-0.2,0-0.4,0.1-0.6,0.3S161.4,353.2,161.4,353.6z"/>
	<path d="M168.7,354.6v0.5h-2.8c0-0.1,0-0.2,0.1-0.4c0.1-0.2,0.2-0.4,0.3-0.6s0.4-0.4,0.7-0.7c0.5-0.4,0.8-0.7,0.9-0.9
		s0.2-0.4,0.2-0.6c0-0.2-0.1-0.4-0.2-0.5s-0.3-0.2-0.6-0.2c-0.3,0-0.5,0.1-0.6,0.2s-0.2,0.4-0.2,0.6l-0.5-0.1c0-0.4,0.2-0.7,0.4-0.9
		s0.6-0.3,1-0.3c0.4,0,0.7,0.1,1,0.3s0.4,0.5,0.4,0.8c0,0.2,0,0.3-0.1,0.5s-0.2,0.3-0.4,0.5s-0.4,0.4-0.8,0.8
		c-0.3,0.3-0.5,0.4-0.6,0.5s-0.2,0.2-0.2,0.3H168.7z"/>
</g>
<g>
	<path d="M160.9,508.9v-0.6h0.5v0.6H160.9z M160.9,512.6v-3.1h0.5v3.1H160.9z"/>
	<path d="M164.2,512.6v-0.4c-0.2,0.3-0.5,0.5-0.9,0.5c-0.2,0-0.5-0.1-0.7-0.2s-0.4-0.3-0.5-0.6s-0.2-0.5-0.2-0.8
		c0-0.3,0.1-0.6,0.2-0.8c0.1-0.3,0.3-0.4,0.5-0.6s0.4-0.2,0.7-0.2c0.2,0,0.4,0,0.5,0.1c0.1,0.1,0.3,0.2,0.4,0.3v-1.5h0.5v4.3H164.2z
		 M162.6,511c0,0.4,0.1,0.7,0.3,0.9s0.4,0.3,0.6,0.3c0.2,0,0.4-0.1,0.6-0.3c0.2-0.2,0.2-0.5,0.2-0.9c0-0.4-0.1-0.7-0.2-0.9
		s-0.4-0.3-0.6-0.3c-0.2,0-0.4,0.1-0.6,0.3S162.6,510.6,162.6,511z"/>
	<path d="M167.1,511.5l0.5-0.1c0.1,0.3,0.2,0.5,0.3,0.6c0.1,0.1,0.3,0.2,0.5,0.2c0.2,0,0.5-0.1,0.6-0.3s0.3-0.4,0.3-0.6
		c0-0.2-0.1-0.4-0.2-0.6s-0.4-0.2-0.6-0.2c-0.1,0-0.2,0-0.4,0.1l0.1-0.5c0,0,0.1,0,0.1,0c0.2,0,0.4-0.1,0.6-0.2s0.3-0.3,0.3-0.5
		c0-0.2-0.1-0.4-0.2-0.5s-0.3-0.2-0.5-0.2c-0.2,0-0.4,0.1-0.5,0.2s-0.2,0.3-0.3,0.6l-0.5-0.1c0.1-0.4,0.2-0.6,0.4-0.8
		c0.2-0.2,0.5-0.3,0.9-0.3c0.2,0,0.5,0.1,0.6,0.2c0.2,0.1,0.3,0.2,0.5,0.4s0.2,0.4,0.2,0.6c0,0.2,0,0.4-0.1,0.5s-0.2,0.3-0.4,0.4
		c0.3,0.1,0.5,0.2,0.6,0.4c0.1,0.2,0.2,0.4,0.2,0.7c0,0.4-0.1,0.7-0.4,1c-0.3,0.3-0.6,0.4-1,0.4c-0.4,0-0.7-0.1-0.9-0.3
		S167.1,511.8,167.1,511.5z"/>
</g>
</svg>
