<?xml version="1.0" encoding="utf-8"?>
<!-- Generator: Adobe Illustrator 19.0.0, SVG Export Plug-In . SVG Version: 6.00 Build 0)  -->
<svg version="1.1" id="Ebene_1" xmlns="http://www.w3.org/2000/svg" xmlns:xlink="http://www.w3.org/1999/xlink" x="0px" y="0px"
	 viewBox="0 0 595.3 841.9" style="enable-background:new 0 0 595.3 841.9;" xml:space="preserve">
<style type="text/css">
	.st0{fill:#030304;}
	.st1{fill:#FFFFFF;}
	.st2{fill:none;stroke:#000000;stroke-width:0.5669;stroke-miterlimit:22.9256;}
	.st3{font-family:'ArialMT';}
	.st4{font-size:24px;}
	.st5{font-size:6px;}
</style>
<rect x="184" y="62.4" class="st0" width="85" height="85"/>
<rect x="198.2" y="76.6" class="st1" width="14.2" height="14.2"/>
<rect x="226.6" y="76.6" class="st1" width="21.3" height="14.2"/>
<rect x="240.7" y="76.6" class="st1" width="14.2" height="14.2"/>
<rect x="240.7" y="76.6" class="st1" width="14.2" height="21.3"/>
<rect x="212.4" y="90.7" class="st1" width="14.2" height="14.2"/>
<rect x="240.7" y="90.7" class="st1" width="14.2" height="14.2"/>
<rect x="240.7" y="90.7" class="st1" width="14.2" height="21.3"/>
<rect x="226.6" y="104.9" class="st1" width="21.3" height="14.2"/>
<rect x="226.6" y="104.9" class="st1" width="14.2" height="21.3"/>
<rect x="240.7" y="104.9" class="st1" width="14.2" height="14.2"/>
<rect x="226.6" y="119.1" class="st1" width="14.2" height="14.2"/>
<rect x="184" y="530.1" class="st0" width="85" height="85"/>
<rect x="198.2" y="544.3" class="st1" width="14.2" height="14.2"/>
<rect x="198.2" y="544.3" class="st1" width="14.2" height="21.3"/>
<rect x="240.7" y="544.3" class="st1" width="14.2" height="14.2"/>
<rect x="240.7" y="544.3" class="st1" width="14.2" height="21.3"/>
<rect x="198.2" y="558.4" class="st1" width="14.2" height="14.2"/>
<rect x="240.7" y="558.4" class="st1" width="14.2" height="14.2"/>
<rect x="212.4" y="572.6" class="st1" width="14.2" height="14.2"/>
<rect x="212.4" y="572.6" class="st1" width="14.2" height="21.3"/>
<rect x="212.4" y="586.8" class="st1" width="21.3" height="14.2"/>
<rect x="226.6" y="586.8" class="st1" width="14.2" height="14.2"/>
<rect x="184" y="374.2" class="st0" width="85" height="85"/>
<rect x="226.6" y="388.4" class="st1" width="21.3" height="14.2"/>
<rect x="226.6" y="388.4" class="st1" width="14.2" height="21.3"/>
<rect x="240.7" y="388.4" class="st1" width="14.2" height="14.2"/>
<rect x="240.7" y="388.4" class="st1" width="14.2" height="21.3"/>
<rect x="226.6" y="402.5" class="st1" width="21.3" height="14.2"/>
<rect x="226.6" y="402.5" class="st1" width="14.2" height="21.3"/>
<rect x="240.7" y="402.5" class="st1" width="14.2" height="14.2"/>
<rect x="226.6" y="416.7" class="st1" width="14.2" height="14.2"/>
<rect x="198.2" y="430.9" class="st1" width="21.3" height="14.2"/>
<rect x="212.4" y="430.9" class="st1" width="14.2" height="14.2"/>
<rect x="240.7" y="430.9" class="st1" width="14.2" height="14.2"/>
<rect x="184" y="218.3" class="st0" width="85" height="85"/>
<rect x="198.2" y="246.6" class="st1" width="21.3" height="14.2"/>
<rect x="198.2" y="246.6" class="st1" width="14.2" height="21.3"/>
<rect x="212.4" y="246.6" class="st1" width="21.3" height="14.2"/>
<rect x="226.6" y="246.6" class="st1" width="21.3" height="14.2"/>
<rect x="240.7" y="246.6" class="st1" width="14.2" height="14.2"/>
<rect x="240.7" y="246.6" class="st1" width="14.2" height="21.3"/>
<rect x="198.2" y="260.8" class="st1" width="14.2" height="14.2"/>
<rect x="198.2" y="260.8" class="st1" width="14.2" height="21.3"/>
<rect x="240.7" y="260.8" class="st1" width="14.2" height="14.2"/>
<rect x="198.2" y="275" class="st1" width="14.2" height="14.2"/>
<rect x="226.6" y="275" class="st1" width="14.2" height="14.2"/>
<rect x="155.7" y="34" class="st2" width="141.7" height="141.7"/>
<rect x="177" y="211.2" class="st2" width="99.2" height="99.2"/>
<rect x="155.7" y="501.7" class="st2" width="141.7" height="141.7"/>
<rect x="177" y="367.1" class="st2" width="99.2" height="99.2"/>
<text transform="matrix(1 0 0 1 317.9082 140.1671)" class="st3 st4">id 0, 30x30mm</text>
<text transform="matrix(1 0 0 1 317.9082 281.8995)" class="st3 st4">id 1, 30x30mm</text>
<text transform="matrix(1 0 0 1 317.9082 423.632)" class="st3 st4">id 2, 30x30mm</text>
<text transform="matrix(1 0 0 1 317.9082 579.5372)" class="st3 st4">id 3, 30x30mm</text>
<text transform="matrix(1 0 0 1 161.5044 44.7374)" class="st3 st5">id 0</text>
<text transform="matrix(1 0 0 1 160.498 199.2531)" class="st3 st5">id 1</text>
<text transform="matrix(1 0 0 1 159.3091 355.1324)" class="st3 st5">id 2</text>
<text transform="matrix(1 0 0 1 160.479 512.6007)" class="st3 st5">id 3</text>
</svg>
