<?xml version="1.0" encoding="utf-8"?>
<!-- Generator: Adobe Illustrator 19.0.0, SVG Export Plug-In . SVG Version: 6.00 Build 0)  -->
<svg version="1.1" id="Ebene_1" xmlns="http://www.w3.org/2000/svg" xmlns:xlink="http://www.w3.org/1999/xlink" x="0px" y="0px"
	 viewBox="0 0 595.3 841.9" style="enable-background:new 0 0 595.3 841.9;" xml:space="preserve">
<style type="text/css">
	.st0{fill:#010202;}
	.st1{fill:#FFFFFF;}
	.st2{fill:none;stroke:#010202;stroke-miterlimit:10;}
	.st3{fill:none;stroke:#010202;stroke-width:0.5;stroke-miterlimit:10;}
	.st4{fill:none;stroke:#010202;stroke-width:0.75;stroke-miterlimit:10;}
</style>
<g id="XMLID_1_">
	
		<rect id="XMLID_27_" x="174.5" y="88.5" transform="matrix(-0.7071 -0.7071 0.7071 -0.7071 348.6659 548.1797)" class="st0" width="226.8" height="226.8"/>
	
		<rect id="XMLID_26_" x="292.2" y="122.7" transform="matrix(-0.7071 -0.7071 0.7071 -0.7071 442.0921 460.8874)" class="st1" width="48.6" height="32.4"/>
	
		<rect id="XMLID_25_" x="317.5" y="139.9" transform="matrix(-0.7071 -0.7071 0.7071 -0.7071 459.2726 502.3649)" class="st1" width="32.4" height="32.4"/>
	
		<rect id="XMLID_24_" x="311.8" y="137.5" transform="matrix(-0.7071 -0.7071 0.7071 -0.7071 445.4468 508.0918)" class="st1" width="32.4" height="48.6"/>
	
		<rect id="XMLID_23_" x="363.3" y="185.7" transform="matrix(-0.7071 -0.7071 0.7071 -0.7071 505.0874 612.9716)" class="st1" width="32.4" height="32.4"/>
	
		<rect id="XMLID_22_" x="357.6" y="183.3" transform="matrix(-0.7071 -0.7071 0.7071 -0.7071 491.2616 618.6985)" class="st1" width="32.4" height="48.6"/>
	
		<rect id="XMLID_21_" x="292.2" y="168.5" transform="matrix(-0.7071 -0.7071 0.7071 -0.7071 409.6961 539.0981)" class="st1" width="48.6" height="32.4"/>
	
		<rect id="XMLID_20_" x="288.8" y="160.4" transform="matrix(-0.7071 -0.7071 0.7071 -0.7071 390.1434 530.9991)" class="st1" width="32.4" height="48.6"/>
	
		<rect id="XMLID_19_" x="315.1" y="191.4" transform="matrix(-0.7071 -0.7071 0.7071 -0.7071 432.6035 594.4015)" class="st1" width="48.6" height="32.4"/>
	
		<rect id="XMLID_18_" x="340.4" y="208.6" transform="matrix(-0.7071 -0.7071 0.7071 -0.7071 449.7841 635.879)" class="st1" width="32.4" height="32.4"/>
	
		<rect id="XMLID_17_" x="334.7" y="206.2" transform="matrix(-0.7071 -0.7071 0.7071 -0.7071 435.9582 641.6059)" class="st1" width="32.4" height="48.6"/>
	
		<rect id="XMLID_16_" x="225.9" y="139.9" transform="matrix(-0.7071 -0.7071 0.7071 -0.7071 302.8511 437.573)" class="st1" width="32.4" height="32.4"/>
	
		<rect id="XMLID_15_" x="220.1" y="137.5" transform="matrix(-0.7071 -0.7071 0.7071 -0.7071 289.0253 443.2999)" class="st1" width="32.4" height="48.6"/>
	
		<rect id="XMLID_14_" x="271.7" y="185.7" transform="matrix(-0.7071 -0.7071 0.7071 -0.7071 348.6659 548.1797)" class="st1" width="32.4" height="32.4"/>
	
		<rect id="XMLID_13_" x="265.9" y="183.3" transform="matrix(-0.7071 -0.7071 0.7071 -0.7071 334.8401 553.9066)" class="st1" width="32.4" height="48.6"/>
	
		<rect id="XMLID_12_" x="317.5" y="231.5" transform="matrix(-0.7071 -0.7071 0.7071 -0.7071 394.4807 658.7864)" class="st1" width="32.4" height="32.4"/>
	
		<rect id="XMLID_11_" x="311.8" y="229.1" transform="matrix(-0.7071 -0.7071 0.7071 -0.7071 380.6549 664.5132)" class="st1" width="32.4" height="48.6"/>
	
		<rect id="XMLID_10_" x="200.6" y="168.5" transform="matrix(-0.7071 -0.7071 0.7071 -0.7071 253.2746 474.3063)" class="st1" width="48.6" height="32.4"/>
	
		<rect id="XMLID_9_" x="223.5" y="191.4" transform="matrix(-0.7071 -0.7071 0.7071 -0.7071 276.182 529.6096)" class="st1" width="48.6" height="32.4"/>
	
		<rect id="XMLID_8_" x="220.1" y="183.3" transform="matrix(-0.7071 -0.7071 0.7071 -0.7071 256.6293 521.5106)" class="st1" width="32.4" height="48.6"/>
	
		<rect id="XMLID_7_" x="246.4" y="214.3" transform="matrix(-0.7071 -0.7071 0.7071 -0.7071 299.0894 584.913)" class="st1" width="48.6" height="32.4"/>
	
		<rect id="XMLID_6_" x="243" y="206.2" transform="matrix(-0.7071 -0.7071 0.7071 -0.7071 279.5367 576.814)" class="st1" width="32.4" height="48.6"/>
	
		<rect id="XMLID_5_" x="269.3" y="237.2" transform="matrix(-0.7071 -0.7071 0.7071 -0.7071 321.9968 640.2163)" class="st1" width="48.6" height="32.4"/>
	
		<rect id="XMLID_4_" x="294.6" y="254.4" transform="matrix(-0.7071 -0.7071 0.7071 -0.7071 339.1774 681.6938)" class="st1" width="32.4" height="32.4"/>
	
		<rect id="XMLID_3_" x="200.6" y="214.3" transform="matrix(-0.7071 -0.7071 0.7071 -0.7071 220.8787 552.517)" class="st1" width="48.6" height="32.4"/>
	
		<rect id="XMLID_2_" x="225.9" y="231.5" transform="matrix(-0.7071 -0.7071 0.7071 -0.7071 238.0592 593.9945)" class="st1" width="32.4" height="32.4"/>
</g>
<g id="XMLID_122_">
	<path id="XMLID_43_" d="M146.4,323.3c0,0.6-0.4,1.1-1.1,1.1c-0.6,0-1.1-0.5-1.1-1.1c0-0.6,0.5-1.1,1.1-1.1
		C146,322.2,146.4,322.7,146.4,323.3z M144.4,335.7V326h1.8v9.7H144.4z"/>
	<path id="XMLID_46_" d="M157.5,321.5v11.7c0,0.9,0,1.8,0.1,2.5H156l-0.1-1.7h0c-0.5,1.1-1.7,1.9-3.3,1.9c-2.3,0-4.1-2-4.1-4.9
		c0-3.2,2-5.2,4.3-5.2c1.5,0,2.5,0.7,2.9,1.5h0v-5.8H157.5z M155.7,330c0-0.2,0-0.5-0.1-0.7c-0.3-1.1-1.2-2-2.5-2
		c-1.8,0-2.9,1.6-2.9,3.7c0,2,1,3.6,2.9,3.6c1.2,0,2.3-0.8,2.6-2.1c0.1-0.2,0.1-0.5,0.1-0.8V330z"/>
	<path id="XMLID_49_" d="M171.5,324c-0.4,0-0.8,0-1.3,0.1c-2.8,0.5-4.2,2.5-4.5,4.6h0.1c0.6-0.8,1.7-1.5,3.1-1.5
		c2.3,0,3.9,1.7,3.9,4.2c0,2.4-1.6,4.6-4.3,4.6c-2.8,0-4.6-2.2-4.6-5.5c0-2.6,0.9-4.6,2.2-5.9c1.1-1.1,2.5-1.7,4.2-1.9
		c0.5-0.1,1-0.1,1.3-0.1V324z M171,331.5c0-1.9-1.1-3-2.7-3c-1.1,0-2,0.7-2.5,1.6c-0.1,0.2-0.2,0.5-0.2,0.8c0,2.1,1,3.7,2.9,3.7
		C170,334.6,171,333.3,171,331.5z"/>
	<path id="XMLID_52_" d="M174.5,327.6c0-0.7,0.5-1.3,1.2-1.3c0.7,0,1.2,0.5,1.2,1.3c0,0.7-0.5,1.2-1.2,1.2
		C174.9,328.9,174.5,328.3,174.5,327.6z M174.5,334.7c0-0.7,0.5-1.3,1.2-1.3c0.7,0,1.2,0.5,1.2,1.3c0,0.7-0.5,1.2-1.2,1.2
		C174.9,335.9,174.5,335.4,174.5,334.7z"/>
	<path id="XMLID_55_" d="M188.4,325.1v4.7h4.5v1.2h-4.5v4.7h-1.3V331h-4.5v-1.2h4.5v-4.7H188.4z"/>
	<path id="XMLID_57_" d="M207,327.4v5.4c0,1.6,0.1,2.4,0.3,2.9h-1.7c-0.2-0.3-0.3-1.2-0.3-2.7v-5.6h-3.2c-0.1,2.5-0.7,6.7-1.4,8.3
		h-1.7c0.7-1.9,1.3-5.7,1.4-8.3c-0.8,0-1.5,0-2,0.2l-0.2-1c0.4-0.3,1.2-0.5,2.8-0.5h7.6l-0.2,1.4H207z"/>
	<path id="XMLID_59_" d="M209,336.5l5.6-14.5h1.4l-5.6,14.5H209z"/>
	<path id="XMLID_61_" d="M222.3,335.7v-3.5h-6V331l5.8-8.3h1.9v8.1h1.8v1.4h-1.8v3.5H222.3z M222.3,330.8v-4.3c0-0.7,0-1.4,0.1-2
		h-0.1c-0.4,0.8-0.7,1.3-1.1,1.9l-3.2,4.4v0H222.3z"/>
</g>
<g id="XMLID_145_">
	<g id="XMLID_30_">
		<path id="XMLID_33_" class="st2" d="M203.6,311.7c-17.7,0.3-33.4-12-36.6-29.6"/>
		<g id="XMLID_31_">
			<path id="XMLID_32_" class="st0" d="M209.6,311.1c-2.9-0.8-6.6-2.3-8.9-4l2.1,4.6l-1.3,4.9C203.5,314.5,206.8,312.4,209.6,311.1z
				"/>
		</g>
	</g>
</g>
<path id="XMLID_36_" class="st2" d="M276.4,30.1"/>
<path id="XMLID_35_" class="st2" d="M116.1,190.4"/>
<line id="XMLID_34_" class="st3" x1="113.3" y1="201.9" x2="113.3" y2="373.6"/>
<line id="XMLID_37_" class="st4" x1="-84.7" y1="96.9" x2="-84.7" y2="98.4"/>
<line id="XMLID_38_" class="st3" x1="462.4" y1="201.9" x2="462.4" y2="373.6"/>
<line id="XMLID_39_" class="st3" x1="462.4" y1="373.6" x2="113.3" y2="373.6"/>
<line id="XMLID_40_" class="st3" x1="287.8" y1="27.4" x2="113.3" y2="201.9"/>
<line id="XMLID_41_" class="st3" x1="287.9" y1="27.4" x2="462.4" y2="201.9"/>
<g id="XMLID_42_">
</g>
<g id="XMLID_64_">
</g>
<g id="XMLID_65_">
</g>
<g id="XMLID_66_">
</g>
<g id="XMLID_67_">
</g>
<g id="XMLID_68_">
</g>
<g id="XMLID_69_">
</g>
</svg>
