<?xml version="1.0" encoding="utf-8"?>
<!-- Generator: Adobe Illustrator 19.0.0, SVG Export Plug-In . SVG Version: 6.00 Build 0)  -->
<svg version="1.1" id="Ebene_1" xmlns="http://www.w3.org/2000/svg" xmlns:xlink="http://www.w3.org/1999/xlink" x="0px" y="0px"
	 viewBox="0 0 1190.6 841.9" style="enable-background:new 0 0 1190.6 841.9;" xml:space="preserve">
<style type="text/css">
	.st0{fill:#010202;}
	.st1{fill:#FFFFFF;}
	.st2{font-family:'MyriadPro-Regular';}
	.st3{font-size:20px;}
	.st4{fill:none;stroke:#010202;stroke-miterlimit:10;}
	.st5{fill:none;stroke:#010202;stroke-miterlimit:10;stroke-dasharray:12.313,12.313;}
	.st6{fill:none;stroke:#010202;stroke-miterlimit:10;stroke-dasharray:11.8669,11.8669;}
	.st7{fill:none;stroke:#010202;stroke-width:2;stroke-miterlimit:10;}
	.st8{fill:#312783;}
	.st9{font-size:10px;}
	.st10{letter-spacing:32;}
	.st11{letter-spacing:5;}
	.st12{letter-spacing:13;}
	.st13{letter-spacing:1;}
	.st14{letter-spacing:33;}
	.st15{letter-spacing:6;}
	.st16{font-size:8px;}
	.st17{letter-spacing:27;}
	.st18{letter-spacing:28;}
	.st19{letter-spacing:30;}
	.st20{letter-spacing:21;}
	.st21{letter-spacing:26;}
	.st22{letter-spacing:23;}
	.st23{letter-spacing:16;}
	.st24{fill:none;stroke:#010202;stroke-width:0.5;stroke-miterlimit:10;}
</style>
<g id="XMLID_1_">
	<rect id="XMLID_19_" x="892.9" y="595.3" class="st0" width="226.8" height="226.8"/>
	<rect id="XMLID_18_" x="925.3" y="627.7" class="st1" width="32.4" height="32.4"/>
	<rect id="XMLID_17_" x="990.1" y="627.7" class="st1" width="32.4" height="32.4"/>
	<rect id="XMLID_16_" x="957.7" y="660.1" class="st1" width="32.4" height="32.4"/>
	<rect id="XMLID_15_" x="957.7" y="660.1" class="st1" width="32.4" height="48.6"/>
	<rect id="XMLID_14_" x="1022.5" y="660.1" class="st1" width="48.6" height="32.4"/>
	<rect id="XMLID_13_" x="1054.9" y="660.1" class="st1" width="32.4" height="32.4"/>
	<rect id="XMLID_12_" x="957.7" y="692.5" class="st1" width="48.6" height="32.4"/>
	<rect id="XMLID_11_" x="990.1" y="692.5" class="st1" width="32.4" height="32.4"/>
	<rect id="XMLID_10_" x="990.1" y="692.5" class="st1" width="32.4" height="48.6"/>
	<rect id="XMLID_9_" x="925.3" y="724.9" class="st1" width="32.4" height="32.4"/>
	<rect id="XMLID_8_" x="925.3" y="724.9" class="st1" width="32.4" height="48.6"/>
	<rect id="XMLID_7_" x="990.1" y="724.9" class="st1" width="32.4" height="32.4"/>
	<rect id="XMLID_6_" x="990.1" y="724.9" class="st1" width="32.4" height="48.6"/>
	<rect id="XMLID_5_" x="1054.9" y="724.9" class="st1" width="32.4" height="32.4"/>
	<rect id="XMLID_4_" x="925.3" y="757.3" class="st1" width="48.6" height="32.4"/>
	<rect id="XMLID_3_" x="957.7" y="757.3" class="st1" width="48.6" height="32.4"/>
	<rect id="XMLID_2_" x="990.1" y="757.3" class="st1" width="32.4" height="32.4"/>
</g>
<g id="XMLID_20_">
	<rect id="XMLID_34_" x="892.9" y="340.2" class="st0" width="226.8" height="226.8"/>
	<rect id="XMLID_33_" x="1054.9" y="372.6" class="st1" width="32.4" height="32.4"/>
	<rect id="XMLID_32_" x="925.3" y="404.9" class="st1" width="48.6" height="32.4"/>
	<rect id="XMLID_31_" x="957.7" y="404.9" class="st1" width="32.4" height="32.4"/>
	<rect id="XMLID_30_" x="1054.9" y="437.3" class="st1" width="32.4" height="32.4"/>
	<rect id="XMLID_29_" x="1054.9" y="437.3" class="st1" width="32.4" height="48.6"/>
	<rect id="XMLID_28_" x="925.3" y="469.7" class="st1" width="32.4" height="32.4"/>
	<rect id="XMLID_27_" x="990.1" y="469.7" class="st1" width="48.6" height="32.4"/>
	<rect id="XMLID_26_" x="990.1" y="469.7" class="st1" width="32.4" height="48.6"/>
	<rect id="XMLID_25_" x="1022.5" y="469.7" class="st1" width="48.6" height="32.4"/>
	<rect id="XMLID_24_" x="1022.5" y="469.7" class="st1" width="32.4" height="48.6"/>
	<rect id="XMLID_23_" x="1054.9" y="469.7" class="st1" width="32.4" height="32.4"/>
	<rect id="XMLID_22_" x="990.1" y="502.1" class="st1" width="48.6" height="32.4"/>
	<rect id="XMLID_21_" x="1022.5" y="502.1" class="st1" width="32.4" height="32.4"/>
</g>
<g id="XMLID_35_">
	
		<rect id="XMLID_59_" x="892.9" y="56.7" transform="matrix(-0.7071 -0.7071 0.7071 -0.7071 1597.5964 1001.9036)" class="st0" width="226.8" height="226.8"/>
	
		<rect id="XMLID_58_" x="987.7" y="68" transform="matrix(-0.7071 -0.7071 0.7071 -0.7071 1668.1151 859.3079)" class="st1" width="48.6" height="32.4"/>
	
		<rect id="XMLID_57_" x="984.4" y="59.9" transform="matrix(-0.7071 -0.7071 0.7071 -0.7071 1648.5625 851.2089)" class="st1" width="32.4" height="48.6"/>
	
		<rect id="XMLID_56_" x="1013" y="85.2" transform="matrix(-0.7071 -0.7071 0.7071 -0.7071 1685.2957 900.7854)" class="st1" width="32.4" height="32.4"/>
	
		<rect id="XMLID_55_" x="1007.3" y="82.8" transform="matrix(-0.7071 -0.7071 0.7071 -0.7071 1671.4698 906.5123)" class="st1" width="32.4" height="48.6"/>
	
		<rect id="XMLID_54_" x="1058.8" y="131" transform="matrix(-0.7071 -0.7071 0.7071 -0.7071 1731.1105 1011.3921)" class="st1" width="32.4" height="32.4"/>
	
		<rect id="XMLID_53_" x="1053.1" y="128.6" transform="matrix(-0.7071 -0.7071 0.7071 -0.7071 1717.2847 1017.119)" class="st1" width="32.4" height="48.6"/>
	
		<rect id="XMLID_52_" x="964.8" y="90.9" transform="matrix(-0.7071 -0.7071 0.7071 -0.7071 1612.8118 882.2153)" class="st1" width="48.6" height="32.4"/>
	
		<rect id="XMLID_51_" x="987.7" y="113.8" transform="matrix(-0.7071 -0.7071 0.7071 -0.7071 1635.7192 937.5186)" class="st1" width="48.6" height="32.4"/>
	
		<rect id="XMLID_50_" x="1010.6" y="136.7" transform="matrix(-0.7071 -0.7071 0.7071 -0.7071 1658.6266 992.822)" class="st1" width="48.6" height="32.4"/>
	
		<rect id="XMLID_49_" x="1035.9" y="153.9" transform="matrix(-0.7071 -0.7071 0.7071 -0.7071 1675.8071 1034.2994)" class="st1" width="32.4" height="32.4"/>
	
		<rect id="XMLID_48_" x="1030.2" y="151.5" transform="matrix(-0.7071 -0.7071 0.7071 -0.7071 1661.9813 1040.0264)" class="st1" width="32.4" height="48.6"/>
	
		<rect id="XMLID_47_" x="1010.6" y="182.5" transform="matrix(-0.7071 -0.7071 0.7071 -0.7071 1626.2306 1071.0327)" class="st1" width="48.6" height="32.4"/>
	
		<rect id="XMLID_46_" x="1007.3" y="174.4" transform="matrix(-0.7071 -0.7071 0.7071 -0.7071 1606.678 1062.9337)" class="st1" width="32.4" height="48.6"/>
	
		<rect id="XMLID_45_" x="1035.9" y="199.7" transform="matrix(-0.7071 -0.7071 0.7071 -0.7071 1643.4111 1112.5103)" class="st1" width="32.4" height="32.4"/>
	
		<rect id="XMLID_44_" x="921.4" y="131" transform="matrix(-0.7071 -0.7071 0.7071 -0.7071 1496.4783 914.2042)" class="st1" width="32.4" height="32.4"/>
	
		<rect id="XMLID_43_" x="915.7" y="128.6" transform="matrix(-0.7071 -0.7071 0.7071 -0.7071 1482.6525 919.9311)" class="st1" width="32.4" height="48.6"/>
	
		<rect id="XMLID_42_" x="964.8" y="182.5" transform="matrix(-0.7071 -0.7071 0.7071 -0.7071 1548.0199 1038.6367)" class="st1" width="48.6" height="32.4"/>
	
		<rect id="XMLID_41_" x="961.5" y="174.4" transform="matrix(-0.7071 -0.7071 0.7071 -0.7071 1528.4672 1030.5377)" class="st1" width="32.4" height="48.6"/>
	
		<rect id="XMLID_40_" x="990.1" y="199.7" transform="matrix(-0.7071 -0.7071 0.7071 -0.7071 1565.2004 1080.1143)" class="st1" width="32.4" height="32.4"/>
	
		<rect id="XMLID_39_" x="896.1" y="159.6" transform="matrix(-0.7071 -0.7071 0.7071 -0.7071 1446.9017 950.9375)" class="st1" width="48.6" height="32.4"/>
	
		<rect id="XMLID_38_" x="919" y="182.5" transform="matrix(-0.7071 -0.7071 0.7071 -0.7071 1469.8092 1006.2408)" class="st1" width="48.6" height="32.4"/>
	
		<rect id="XMLID_37_" x="944.3" y="199.7" transform="matrix(-0.7071 -0.7071 0.7071 -0.7071 1486.9897 1047.7184)" class="st1" width="32.4" height="32.4"/>
	
		<rect id="XMLID_36_" x="990.1" y="245.5" transform="matrix(-0.7071 -0.7071 0.7071 -0.7071 1532.8044 1158.3251)" class="st1" width="32.4" height="32.4"/>
</g>
<g id="XMLID_60_">
	<rect id="XMLID_82_" x="609.4" y="56.7" class="st0" width="226.8" height="226.8"/>
	<rect id="XMLID_81_" x="641.8" y="89.1" class="st1" width="32.4" height="32.4"/>
	<rect id="XMLID_80_" x="706.6" y="121.5" class="st1" width="48.6" height="32.4"/>
	<rect id="XMLID_79_" x="706.6" y="121.5" class="st1" width="32.4" height="48.6"/>
	<rect id="XMLID_78_" x="739" y="121.5" class="st1" width="48.6" height="32.4"/>
	<rect id="XMLID_77_" x="771.4" y="121.5" class="st1" width="32.4" height="32.4"/>
	<rect id="XMLID_76_" x="771.4" y="121.5" class="st1" width="32.4" height="48.6"/>
	<rect id="XMLID_75_" x="706.6" y="153.9" class="st1" width="32.4" height="32.4"/>
	<rect id="XMLID_74_" x="706.6" y="153.9" class="st1" width="32.4" height="48.6"/>
	<rect id="XMLID_73_" x="771.4" y="153.9" class="st1" width="32.4" height="32.4"/>
	<rect id="XMLID_72_" x="771.4" y="153.9" class="st1" width="32.4" height="48.6"/>
	<rect id="XMLID_71_" x="674.2" y="186.3" class="st1" width="48.6" height="32.4"/>
	<rect id="XMLID_70_" x="706.6" y="186.3" class="st1" width="48.6" height="32.4"/>
	<rect id="XMLID_69_" x="706.6" y="186.3" class="st1" width="32.4" height="48.6"/>
	<rect id="XMLID_68_" x="739" y="186.3" class="st1" width="48.6" height="32.4"/>
	<rect id="XMLID_67_" x="739" y="186.3" class="st1" width="32.4" height="48.6"/>
	<rect id="XMLID_66_" x="771.4" y="186.3" class="st1" width="32.4" height="32.4"/>
	<rect id="XMLID_65_" x="771.4" y="186.3" class="st1" width="32.4" height="48.6"/>
	<rect id="XMLID_64_" x="641.8" y="218.7" class="st1" width="32.4" height="32.4"/>
	<rect id="XMLID_63_" x="706.6" y="218.7" class="st1" width="48.6" height="32.4"/>
	<rect id="XMLID_62_" x="739" y="218.7" class="st1" width="48.6" height="32.4"/>
	<rect id="XMLID_61_" x="771.4" y="218.7" class="st1" width="32.4" height="32.4"/>
</g>
<g id="XMLID_83_">
	
		<rect id="XMLID_104_" x="326" y="56.7" transform="matrix(-0.7071 0.7071 -0.7071 -0.7071 870.3155 -20.339)" class="st0" width="226.8" height="226.8"/>
	
		<rect id="XMLID_103_" x="329.2" y="148.2" transform="matrix(-0.7071 0.7071 -0.7071 -0.7071 719.6208 30.6271)" class="st1" width="48.6" height="32.4"/>
	
		<rect id="XMLID_102_" x="337.3" y="151.5" transform="matrix(-0.7071 0.7071 -0.7071 -0.7071 727.7198 50.1798)" class="st1" width="32.4" height="48.6"/>
	
		<rect id="XMLID_101_" x="354.4" y="131" transform="matrix(-0.7071 0.7071 -0.7071 -0.7071 736.8014 -10.8504)" class="st1" width="32.4" height="32.4"/>
	
		<rect id="XMLID_100_" x="360.2" y="128.6" transform="matrix(-0.7071 0.7071 -0.7071 -0.7071 750.6272 -5.1236)" class="st1" width="32.4" height="48.6"/>
	
		<rect id="XMLID_99_" x="400.3" y="85.2" transform="matrix(-0.7071 0.7071 -0.7071 -0.7071 782.6161 -121.4571)" class="st1" width="32.4" height="32.4"/>
	
		<rect id="XMLID_98_" x="352.1" y="171.1" transform="matrix(-0.7071 0.7071 -0.7071 -0.7071 774.9242 53.5345)" class="st1" width="48.6" height="32.4"/>
	
		<rect id="XMLID_97_" x="375" y="148.2" transform="matrix(-0.7071 0.7071 -0.7071 -0.7071 797.8316 -1.7689)" class="st1" width="48.6" height="32.4"/>
	
		<rect id="XMLID_96_" x="383.1" y="151.5" transform="matrix(-0.7071 0.7071 -0.7071 -0.7071 805.9305 17.7838)" class="st1" width="32.4" height="48.6"/>
	
		<rect id="XMLID_95_" x="400.3" y="131" transform="matrix(-0.7071 0.7071 -0.7071 -0.7071 815.0121 -43.2464)" class="st1" width="32.4" height="32.4"/>
	
		<rect id="XMLID_94_" x="406" y="128.6" transform="matrix(-0.7071 0.7071 -0.7071 -0.7071 828.838 -37.5195)" class="st1" width="32.4" height="48.6"/>
	
		<rect id="XMLID_93_" x="446.1" y="85.2" transform="matrix(-0.7071 0.7071 -0.7071 -0.7071 860.8269 -153.8531)" class="st1" width="32.4" height="32.4"/>
	
		<rect id="XMLID_92_" x="451.8" y="82.8" transform="matrix(-0.7071 0.7071 -0.7071 -0.7071 874.6528 -148.1262)" class="st1" width="32.4" height="48.6"/>
	
		<rect id="XMLID_91_" x="397.9" y="171.1" transform="matrix(-0.7071 0.7071 -0.7071 -0.7071 853.1349 21.1385)" class="st1" width="48.6" height="32.4"/>
	
		<rect id="XMLID_90_" x="406" y="174.4" transform="matrix(-0.7071 0.7071 -0.7071 -0.7071 861.2339 40.6912)" class="st1" width="32.4" height="48.6"/>
	
		<rect id="XMLID_89_" x="423.2" y="153.9" transform="matrix(-0.7071 0.7071 -0.7071 -0.7071 870.3155 -20.339)" class="st1" width="32.4" height="32.4"/>
	
		<rect id="XMLID_88_" x="469" y="108.1" transform="matrix(-0.7071 0.7071 -0.7071 -0.7071 916.1302 -130.9457)" class="st1" width="32.4" height="32.4"/>
	
		<rect id="XMLID_87_" x="474.7" y="105.7" transform="matrix(-0.7071 0.7071 -0.7071 -0.7071 929.9561 -125.2188)" class="st1" width="32.4" height="48.6"/>
	
		<rect id="XMLID_86_" x="423.2" y="199.7" transform="matrix(-0.7071 0.7071 -0.7071 -0.7071 902.7114 57.8717)" class="st1" width="32.4" height="32.4"/>
	
		<rect id="XMLID_85_" x="491.9" y="131" transform="matrix(-0.7071 0.7071 -0.7071 -0.7071 971.4336 -108.0383)" class="st1" width="32.4" height="32.4"/>
	
		<rect id="XMLID_84_" x="469" y="199.7" transform="matrix(-0.7071 0.7071 -0.7071 -0.7071 980.9222 25.4758)" class="st1" width="32.4" height="32.4"/>
</g>
<g id="XMLID_105_">
	<rect id="XMLID_118_" x="42.5" y="56.7" class="st0" width="226.8" height="226.8"/>
	<rect id="XMLID_117_" x="74.9" y="89.1" class="st1" width="48.6" height="32.4"/>
	<rect id="XMLID_116_" x="107.3" y="89.1" class="st1" width="48.6" height="32.4"/>
	<rect id="XMLID_115_" x="107.3" y="89.1" class="st1" width="32.4" height="48.6"/>
	<rect id="XMLID_114_" x="139.7" y="89.1" class="st1" width="32.4" height="32.4"/>
	<rect id="XMLID_113_" x="204.5" y="89.1" class="st1" width="32.4" height="32.4"/>
	<rect id="XMLID_112_" x="107.3" y="121.5" class="st1" width="32.4" height="32.4"/>
	<rect id="XMLID_111_" x="172.1" y="153.9" class="st1" width="32.4" height="32.4"/>
	<rect id="XMLID_110_" x="204.5" y="186.3" class="st1" width="32.4" height="32.4"/>
	<rect id="XMLID_109_" x="204.5" y="186.3" class="st1" width="32.4" height="48.6"/>
	<rect id="XMLID_108_" x="107.3" y="218.7" class="st1" width="48.6" height="32.4"/>
	<rect id="XMLID_107_" x="139.7" y="218.7" class="st1" width="32.4" height="32.4"/>
	<rect id="XMLID_106_" x="204.5" y="218.7" class="st1" width="32.4" height="32.4"/>
</g>
<text id="XMLID_119_" transform="matrix(1 0 0 1 89.6162 365.0947)" class="st2 st3">id 5</text>
<text id="XMLID_120_" transform="matrix(1 0 0 1 324.8331 365.0947)" class="st2 st3">id 4: - π/4</text>
<text id="XMLID_121_" transform="matrix(1 0 0 1 617.8331 365.0947)" class="st2 st3">id 3</text>
<text id="XMLID_122_" transform="matrix(1 0 0 1 784.8331 365.0947)" class="st2 st3">id 2: + π/4</text>
<text id="XMLID_123_" transform="matrix(1 0 0 1 845.9479 566.9291)" class="st2 st3">id 1</text>
<text id="XMLID_124_" transform="matrix(1 0 0 1 854.9479 820.0477)" class="st2 st3">id 0</text>
<text id="XMLID_125_" transform="matrix(1 0 0 1 89.6162 388.7516)" class="st2 st3">ArUco 5x5, 80x80mm</text>
<g id="XMLID_126_">
	<g id="XMLID_187_">
		<line id="XMLID_190_" class="st4" x1="42.5" y1="379.1" x2="42.5" y2="385.1"/>
		<line id="XMLID_189_" class="st5" x1="42.5" y1="397.4" x2="42.5" y2="809.9"/>
		<line id="XMLID_188_" class="st4" x1="42.5" y1="816" x2="42.5" y2="822"/>
	</g>
</g>
<g id="XMLID_127_">
	<g id="XMLID_182_">
		<line id="XMLID_185_" class="st4" x1="42.5" y1="822" x2="48.5" y2="822"/>
		<line id="XMLID_184_" class="st6" x1="60.4" y1="822" x2="719" y2="822"/>
		<line id="XMLID_183_" class="st4" x1="724.9" y1="822" x2="730.9" y2="822"/>
	</g>
</g>
<line id="XMLID_128_" class="st7" x1="25.5" y1="805" x2="59.5" y2="839.1"/>
<line id="XMLID_129_" class="st7" x1="59.5" y1="805" x2="25.5" y2="839.1"/>
<text id="XMLID_130_" transform="matrix(1 0 0 1 58.5276 777.7504)"><tspan x="0" y="0" class="st8 st2 st3">O</tspan><tspan x="13.8" y="0" class="st2 st3">rigin </tspan><tspan x="56.2" y="0" class="st8 st2 st3">R</tspan><tspan x="67" y="0" class="st2 st3">eference </tspan><tspan x="143.7" y="0" class="st8 st2 st3">B</tspan><tspan x="154.6" y="0" class="st2 st3">oard</tspan><tspan x="0" y="24" class="st2 st3">(0|0|0)</tspan></text>
<text id="XMLID_143_" transform="matrix(1 0 0 1 302.148 746.8968)"><tspan x="0" y="0" class="st2 st9">Translation to Magnet FOV Center: </tspan><tspan x="145.5" y="0" class="st2 st9 st10">	</tspan><tspan x="180" y="0" class="st2 st9">(-181.5</tspan><tspan x="208.5" y="0" class="st2 st9 st11">	</tspan><tspan x="216" y="0" class="st2 st9">|-186</tspan><tspan x="236.8" y="0" class="st2 st9 st12">	</tspan><tspan x="252" y="0" class="st2 st9">|200) mm</tspan><tspan x="0" y="12" class="st2 st9">Translation to Robot Base Center: </tspan><tspan x="140.4" y="12" class="st2 st9 st13">	</tspan><tspan x="144" y="12" class="st2 st9 st14">	</tspan><tspan x="180" y="12" class="st2 st9">(340-d</tspan><tspan x="206.9" y="12" class="st2 st9 st15">	</tspan><tspan x="216" y="12" class="st2 st9">|-108</tspan><tspan x="236.8" y="12" class="st2 st9 st12">	</tspan><tspan x="252" y="12" class="st2 st9">|200) mm</tspan><tspan x="0" y="24" class="st2 st9 st14">	</tspan><tspan x="36" y="24" class="st2 st9">d: Distance between edge of reference board and robot base holder </tspan><tspan x="0" y="36" class="st2 st9 st14">	</tspan><tspan x="36" y="36" class="st2 st9">     (square with side length 130mm)</tspan></text>
<g id="XMLID_144_">
	<g id="XMLID_155_">
		<path id="XMLID_158_" class="st4" d="M469.4,340.3c-15.2,15.1-39,16.3-55.6,3.7"/>
		<g id="XMLID_156_">
			<path id="XMLID_157_" class="st0" d="M409.3,340c2.8,1,6.7,2,9.6,1.9l-4.4,2.5l-1.8,4.7C412.3,346.3,410.8,342.7,409.3,340z"/>
		</g>
	</g>
</g>
<g id="XMLID_145_">
	<g id="XMLID_161_">
		<path id="XMLID_164_" class="st4" d="M924.1,291.3c-17.7,0.3-33.4-12-36.6-29.6"/>
		<g id="XMLID_162_">
			<path id="XMLID_163_" class="st0" d="M930.1,290.8c-2.9-0.8-6.6-2.3-8.9-4l2.1,4.6l-1.3,4.9C924,294.1,927.3,292.1,930.1,290.8z"
				/>
		</g>
	</g>
</g>
<g id="XMLID_139_">
	<g id="XMLID_132_">
		<g id="XMLID_159_">
			<line id="XMLID_167_" class="st4" x1="395.6" y1="591.3" x2="419.7" y2="567.2"/>
			<g id="XMLID_165_">
				<path id="XMLID_166_" class="st0" d="M391.3,595.6c2.8-1.3,6.5-2.5,9.4-2.7l-4.6-2.1l-2.1-4.6
					C393.8,589.1,392.6,592.8,391.3,595.6z"/>
			</g>
		</g>
	</g>
	<g id="XMLID_133_">
		<g id="XMLID_152_">
			<line id="XMLID_170_" class="st4" x1="419.7" y1="567.2" x2="462.3" y2="567.2"/>
			<g id="XMLID_168_">
				<path id="XMLID_169_" class="st0" d="M468.3,567.2c-2.8,1.1-6.4,2.9-8.5,4.8l1.7-4.8l-1.7-4.8
					C462,564.4,465.5,566.2,468.3,567.2z"/>
			</g>
		</g>
	</g>
	<g id="XMLID_134_">
		<g id="XMLID_150_">
			<line id="XMLID_173_" class="st4" x1="419.7" y1="567.2" x2="419.7" y2="520.5"/>
			<g id="XMLID_171_">
				<path id="XMLID_172_" class="st0" d="M419.7,514.4c1.1,2.8,2.9,6.4,4.8,8.5l-4.8-1.7l-4.8,1.7
					C416.8,520.8,418.6,517.3,419.7,514.4z"/>
			</g>
		</g>
	</g>
	<text id="XMLID_140_" transform="matrix(1 0 0 1 422.0738 508.4456)" class="st2 st3">y</text>
	<text id="XMLID_141_" transform="matrix(1 0 0 1 477.3238 566.9457)" class="st2 st3">x</text>
	<text id="XMLID_142_" transform="matrix(1 0 0 1 382.3238 604.6957)" class="st2 st3">z</text>
	<text id="XMLID_135_" transform="matrix(1 0 0 1 422.0738 564.2213)" class="st8 st2 st16">O RB</text>
</g>
<g id="XMLID_138_">
	<text id="XMLID_136_" transform="matrix(1 0 0 1 370.8701 625.6664)"><tspan x="0" y="0" class="st2 st16">ID</tspan><tspan x="7.2" y="0" class="st2 st16 st17">	</tspan><tspan x="36" y="0" class="st2 st16">x </tspan><tspan x="41.4" y="0" class="st2 st16 st18">	</tspan><tspan x="72" y="0" class="st2 st16">y  </tspan><tspan x="79.2" y="0" class="st2 st16 st17">	</tspan><tspan x="108" y="0" class="st2 st16">z</tspan><tspan x="111.4" y="0" class="st2 st16 st19">	</tspan><tspan x="144" y="0" class="st2 st16">Rotation</tspan><tspan x="0" y="9.6" class="st2 st16">0</tspan><tspan x="4.1" y="9.6" class="st2 st16 st19">	</tspan><tspan x="36" y="9.6" class="st2 st16">340</tspan><tspan x="48.3" y="9.6" class="st2 st16 st20">	</tspan><tspan x="72" y="9.6" class="st2 st16">40</tspan><tspan x="80.2" y="9.6" class="st2 st16 st21">	</tspan><tspan x="108" y="9.6" class="st2 st16">0</tspan><tspan x="112.1" y="9.6" class="st2 st16 st19">	</tspan><tspan x="144" y="9.6" class="st2 st16">0</tspan><tspan x="0" y="19.2" class="st2 st16">1</tspan><tspan x="4.1" y="19.2" class="st2 st16 st19">	</tspan><tspan x="36" y="19.2" class="st2 st16">340</tspan><tspan x="48.3" y="19.2" class="st2 st16 st20">	</tspan><tspan x="72" y="19.2" class="st2 st16">130</tspan><tspan x="84.3" y="19.2" class="st2 st16 st20">	</tspan><tspan x="108" y="19.2" class="st2 st16">0</tspan><tspan x="112.1" y="19.2" class="st2 st16 st19">	</tspan><tspan x="144" y="19.2" class="st2 st16">0</tspan><tspan x="0" y="28.8" class="st2 st16">2</tspan><tspan x="4.1" y="28.8" class="st2 st16 st19">	</tspan><tspan x="36" y="28.8" class="st2 st16">340</tspan><tspan x="48.3" y="28.8" class="st2 st16 st20">	</tspan><tspan x="72" y="28.8" class="st2 st16">230</tspan><tspan x="84.3" y="28.8" class="st2 st16 st20">	</tspan><tspan x="108" y="28.8" class="st2 st16">0</tspan><tspan x="112.1" y="28.8" class="st2 st16 st19">	</tspan><tspan x="144" y="28.8" class="st2 st16">+ π/4</tspan><tspan x="0" y="38.4" class="st2 st16">3</tspan><tspan x="4.1" y="38.4" class="st2 st16 st19">	</tspan><tspan x="36" y="38.4" class="st2 st16">240</tspan><tspan x="48.3" y="38.4" class="st2 st16 st20">	</tspan><tspan x="72" y="38.4" class="st2 st16">230</tspan><tspan x="84.3" y="38.4" class="st2 st16 st20">	</tspan><tspan x="108" y="38.4" class="st2 st16">0</tspan><tspan x="112.1" y="38.4" class="st2 st16 st19">	</tspan><tspan x="144" y="38.4" class="st2 st16">0</tspan><tspan x="0" y="48" class="st2 st16">4</tspan><tspan x="4.1" y="48" class="st2 st16 st19">	</tspan><tspan x="36" y="48" class="st2 st16">140</tspan><tspan x="48.3" y="48" class="st2 st16 st20">	</tspan><tspan x="72" y="48" class="st2 st16">230</tspan><tspan x="84.3" y="48" class="st2 st16 st20">	</tspan><tspan x="108" y="48" class="st2 st16">0</tspan><tspan x="112.1" y="48" class="st2 st16 st19">	</tspan><tspan x="144" y="48" class="st2 st16">- π/4</tspan><tspan x="0" y="57.6" class="st2 st16">5</tspan><tspan x="4.1" y="57.6" class="st2 st16 st19">	</tspan><tspan x="36" y="57.6" class="st2 st16">40</tspan><tspan x="44.2" y="57.6" class="st2 st16 st21">	</tspan><tspan x="72" y="57.6" class="st2 st16">230</tspan><tspan x="84.3" y="57.6" class="st2 st16 st20">	</tspan><tspan x="108" y="57.6" class="st2 st16">0</tspan><tspan x="112.1" y="57.6" class="st2 st16 st19">	</tspan><tspan x="144" y="57.6" class="st2 st16">0</tspan><tspan x="0" y="67.2" class="st2 st16">6</tspan><tspan x="4.1" y="67.2" class="st2 st16 st19">	</tspan><tspan x="36" y="67.2" class="st2 st16">60</tspan><tspan x="44.2" y="67.2" class="st2 st16 st21">	</tspan><tspan x="72" y="67.2" class="st2 st16">-48</tspan><tspan x="82.7" y="67.2" class="st2 st16 st22">	</tspan><tspan x="108" y="67.2" class="st2 st16">60</tspan><tspan x="116.2" y="67.2" class="st2 st16 st21">	</tspan><tspan x="144" y="67.2" class="st2 st16">+ π/4</tspan><tspan x="161.8" y="67.2" class="st2 st16 st23">	</tspan><tspan x="0" y="86.4" class="st2 st16">Position ArUco Center, Size ArUco: 5x5, 80mm</tspan><tspan x="0" y="96" class="st2 st16">id6: Positioned on extra 3d-printed holder</tspan><tspan x="0" y="105.6" class="st2 st16">MPI bioKyb, P. Povolni, 02/24</tspan></text>
	<line id="XMLID_137_" class="st24" x1="370.7" y1="627.7" x2="543.1" y2="627.7"/>
</g>
<rect id="XMLID_146_" x="293" y="485.9" class="st4" width="333" height="316.1"/>
</svg>
