<?xml version="1.0" encoding="utf-8"?>
<!-- Generator: Adobe Illustrator 19.0.0, SVG Export Plug-In . SVG Version: 6.00 Build 0)  -->
<svg version="1.1" id="Ebene_1" xmlns="http://www.w3.org/2000/svg" xmlns:xlink="http://www.w3.org/1999/xlink" x="0px" y="0px"
	 viewBox="0 0 1190.6 841.9" style="enable-background:new 0 0 1190.6 841.9;" xml:space="preserve">
<style type="text/css">
	.st0{fill:#FFFFFF;}
</style>
<rect id="XMLID_27_" x="42.5" y="28.3" width="85" height="85"/>
<rect id="XMLID_44_" x="127.6" y="28.3" class="st0" width="85" height="85"/>
<rect id="XMLID_153_" x="212.6" y="28.3" width="85" height="85"/>
<rect id="XMLID_2_" x="297.6" y="28.3" class="st0" width="85" height="85"/>
<rect id="XMLID_1_" x="382.7" y="28.3" width="85" height="85"/>
<rect id="XMLID_4_" x="467.7" y="28.3" class="st0" width="85" height="85"/>
<rect id="XMLID_3_" x="552.8" y="28.3" width="85" height="85"/>
<rect id="XMLID_6_" x="637.8" y="28.3" class="st0" width="85" height="85"/>
<rect id="XMLID_5_" x="722.8" y="28.3" width="85" height="85"/>
<rect id="XMLID_8_" x="807.9" y="28.3" class="st0" width="85" height="85"/>
<rect id="XMLID_7_" x="892.9" y="28.3" width="85" height="85"/>
<rect id="XMLID_10_" x="978" y="28.3" class="st0" width="85" height="85"/>
<rect id="XMLID_9_" x="1063" y="28.3" width="85" height="85"/>
<rect id="XMLID_22_" x="42.5" y="113.4" class="st0" width="85" height="85"/>
<rect id="XMLID_21_" x="127.6" y="113.4" width="85" height="85"/>
<rect id="XMLID_20_" x="212.6" y="113.4" class="st0" width="85" height="85"/>
<rect id="XMLID_19_" x="297.6" y="113.4" width="85" height="85"/>
<rect id="XMLID_18_" x="382.7" y="113.4" class="st0" width="85" height="85"/>
<rect id="XMLID_17_" x="467.7" y="113.4" width="85" height="85"/>
<rect id="XMLID_16_" x="552.8" y="113.4" class="st0" width="85" height="85"/>
<rect id="XMLID_15_" x="637.8" y="113.4" width="85" height="85"/>
<rect id="XMLID_14_" x="722.8" y="113.4" class="st0" width="85" height="85"/>
<rect id="XMLID_13_" x="807.9" y="113.4" width="85" height="85"/>
<rect id="XMLID_12_" x="892.9" y="113.4" class="st0" width="85" height="85"/>
<rect id="XMLID_11_" x="978" y="113.4" width="85" height="85"/>
<rect id="XMLID_23_" x="1063" y="113.4" class="st0" width="85" height="85"/>
<rect id="XMLID_51_" x="42.5" y="198.4" width="85" height="85"/>
<rect id="XMLID_50_" x="127.6" y="198.4" class="st0" width="85" height="85"/>
<rect id="XMLID_49_" x="212.6" y="198.4" width="85" height="85"/>
<rect id="XMLID_48_" x="297.6" y="198.4" class="st0" width="85" height="85"/>
<rect id="XMLID_47_" x="382.7" y="198.4" width="85" height="85"/>
<rect id="XMLID_46_" x="467.7" y="198.4" class="st0" width="85" height="85"/>
<rect id="XMLID_45_" x="552.8" y="198.4" width="85" height="85"/>
<rect id="XMLID_43_" x="637.8" y="198.4" class="st0" width="85" height="85"/>
<rect id="XMLID_42_" x="722.8" y="198.4" width="85" height="85"/>
<rect id="XMLID_41_" x="807.9" y="198.4" class="st0" width="85" height="85"/>
<rect id="XMLID_40_" x="892.9" y="198.4" width="85" height="85"/>
<rect id="XMLID_39_" x="978" y="198.4" class="st0" width="85" height="85"/>
<rect id="XMLID_38_" x="1063" y="198.4" width="85" height="85"/>
<rect id="XMLID_37_" x="42.5" y="283.5" class="st0" width="85" height="85"/>
<rect id="XMLID_36_" x="127.6" y="283.5" width="85" height="85"/>
<rect id="XMLID_35_" x="212.6" y="283.5" class="st0" width="85" height="85"/>
<rect id="XMLID_34_" x="297.6" y="283.5" width="85" height="85"/>
<rect id="XMLID_33_" x="382.7" y="283.5" class="st0" width="85" height="85"/>
<rect id="XMLID_32_" x="467.7" y="283.5" width="85" height="85"/>
<rect id="XMLID_31_" x="552.8" y="283.5" class="st0" width="85" height="85"/>
<rect id="XMLID_30_" x="637.8" y="283.5" width="85" height="85"/>
<rect id="XMLID_29_" x="722.8" y="283.5" class="st0" width="85" height="85"/>
<rect id="XMLID_28_" x="807.9" y="283.5" width="85" height="85"/>
<rect id="XMLID_26_" x="892.9" y="283.5" class="st0" width="85" height="85"/>
<rect id="XMLID_25_" x="978" y="283.5" width="85" height="85"/>
<rect id="XMLID_24_" x="1063" y="283.5" class="st0" width="85" height="85"/>
<rect id="XMLID_103_" x="42.5" y="368.5" width="85" height="85"/>
<rect id="XMLID_102_" x="127.6" y="368.5" class="st0" width="85" height="85"/>
<rect id="XMLID_101_" x="212.6" y="368.5" width="85" height="85"/>
<rect id="XMLID_100_" x="297.6" y="368.5" class="st0" width="85" height="85"/>
<rect id="XMLID_99_" x="382.7" y="368.5" width="85" height="85"/>
<rect id="XMLID_98_" x="467.7" y="368.5" class="st0" width="85" height="85"/>
<rect id="XMLID_97_" x="552.8" y="368.5" width="85" height="85"/>
<rect id="XMLID_96_" x="637.8" y="368.5" class="st0" width="85" height="85"/>
<rect id="XMLID_95_" x="722.8" y="368.5" width="85" height="85"/>
<rect id="XMLID_94_" x="807.9" y="368.5" class="st0" width="85" height="85"/>
<rect id="XMLID_93_" x="892.9" y="368.5" width="85" height="85"/>
<rect id="XMLID_92_" x="978" y="368.5" class="st0" width="85" height="85"/>
<rect id="XMLID_91_" x="1063" y="368.5" width="85" height="85"/>
<rect id="XMLID_90_" x="42.5" y="453.5" class="st0" width="85" height="85"/>
<rect id="XMLID_89_" x="127.6" y="453.5" width="85" height="85"/>
<rect id="XMLID_88_" x="212.6" y="453.5" class="st0" width="85" height="85"/>
<rect id="XMLID_87_" x="297.6" y="453.5" width="85" height="85"/>
<rect id="XMLID_86_" x="382.7" y="453.5" class="st0" width="85" height="85"/>
<rect id="XMLID_85_" x="467.7" y="453.5" width="85" height="85"/>
<rect id="XMLID_84_" x="552.8" y="453.5" class="st0" width="85" height="85"/>
<rect id="XMLID_83_" x="637.8" y="453.5" width="85" height="85"/>
<rect id="XMLID_82_" x="722.8" y="453.5" class="st0" width="85" height="85"/>
<rect id="XMLID_81_" x="807.9" y="453.5" width="85" height="85"/>
<rect id="XMLID_80_" x="892.9" y="453.5" class="st0" width="85" height="85"/>
<rect id="XMLID_79_" x="978" y="453.5" width="85" height="85"/>
<rect id="XMLID_78_" x="1063" y="453.5" class="st0" width="85" height="85"/>
<rect id="XMLID_77_" x="42.5" y="538.6" width="85" height="85"/>
<rect id="XMLID_76_" x="127.6" y="538.6" class="st0" width="85" height="85"/>
<rect id="XMLID_75_" x="212.6" y="538.6" width="85" height="85"/>
<rect id="XMLID_74_" x="297.6" y="538.6" class="st0" width="85" height="85"/>
<rect id="XMLID_73_" x="382.7" y="538.6" width="85" height="85"/>
<rect id="XMLID_72_" x="467.7" y="538.6" class="st0" width="85" height="85"/>
<rect id="XMLID_71_" x="552.8" y="538.6" width="85" height="85"/>
<rect id="XMLID_70_" x="637.8" y="538.6" class="st0" width="85" height="85"/>
<rect id="XMLID_69_" x="722.8" y="538.6" width="85" height="85"/>
<rect id="XMLID_68_" x="807.9" y="538.6" class="st0" width="85" height="85"/>
<rect id="XMLID_67_" x="892.9" y="538.6" width="85" height="85"/>
<rect id="XMLID_66_" x="978" y="538.6" class="st0" width="85" height="85"/>
<rect id="XMLID_65_" x="1063" y="538.6" width="85" height="85"/>
<rect id="XMLID_64_" x="42.5" y="623.6" class="st0" width="85" height="85"/>
<rect id="XMLID_63_" x="127.6" y="623.6" width="85" height="85"/>
<rect id="XMLID_62_" x="212.6" y="623.6" class="st0" width="85" height="85"/>
<rect id="XMLID_61_" x="297.6" y="623.6" width="85" height="85"/>
<rect id="XMLID_60_" x="382.7" y="623.6" class="st0" width="85" height="85"/>
<rect id="XMLID_59_" x="467.7" y="623.6" width="85" height="85"/>
<rect id="XMLID_58_" x="552.8" y="623.6" class="st0" width="85" height="85"/>
<rect id="XMLID_57_" x="637.8" y="623.6" width="85" height="85"/>
<rect id="XMLID_56_" x="722.8" y="623.6" class="st0" width="85" height="85"/>
<rect id="XMLID_55_" x="807.9" y="623.6" width="85" height="85"/>
<rect id="XMLID_54_" x="892.9" y="623.6" class="st0" width="85" height="85"/>
<rect id="XMLID_53_" x="978" y="623.6" width="85" height="85"/>
<rect id="XMLID_52_" x="1063" y="623.6" class="st0" width="85" height="85"/>
<rect id="XMLID_129_" x="42.5" y="708.7" width="85" height="85"/>
<rect id="XMLID_128_" x="127.6" y="708.7" class="st0" width="85" height="85"/>
<rect id="XMLID_127_" x="212.6" y="708.7" width="85" height="85"/>
<rect id="XMLID_126_" x="297.6" y="708.7" class="st0" width="85" height="85"/>
<rect id="XMLID_125_" x="382.7" y="708.7" width="85" height="85"/>
<rect id="XMLID_124_" x="467.7" y="708.7" class="st0" width="85" height="85"/>
<rect id="XMLID_123_" x="552.8" y="708.7" width="85" height="85"/>
<rect id="XMLID_122_" x="637.8" y="708.7" class="st0" width="85" height="85"/>
<rect id="XMLID_121_" x="722.8" y="708.7" width="85" height="85"/>
<rect id="XMLID_120_" x="807.9" y="708.7" class="st0" width="85" height="85"/>
<rect id="XMLID_119_" x="892.9" y="708.7" width="85" height="85"/>
<rect id="XMLID_118_" x="978" y="708.7" class="st0" width="85" height="85"/>
<rect id="XMLID_117_" x="1063" y="708.7" width="85" height="85"/>
<g id="XMLID_104_">
	<path id="XMLID_106_" d="M69.2,818.3c-0.4,0.2-1.2,0.4-2.1,0.4c-2.3,0-4-1.4-4-4.1c0-2.5,1.7-4.2,4.2-4.2c1,0,1.6,0.2,1.9,0.4
		l-0.3,0.9c-0.4-0.2-1-0.3-1.6-0.3c-1.9,0-3.2,1.2-3.2,3.3c0,2,1.1,3.3,3.1,3.3c0.6,0,1.3-0.1,1.7-0.3L69.2,818.3z"/>
	<path id="XMLID_108_" d="M70.5,810.1h1.1v3.6h0c0.2-0.3,0.4-0.6,0.8-0.7c0.3-0.2,0.7-0.3,1.1-0.3c0.8,0,2,0.5,2,2.5v3.5h-1.1v-3.3
		c0-0.9-0.3-1.7-1.3-1.7c-0.7,0-1.2,0.5-1.4,1.1c-0.1,0.1-0.1,0.3-0.1,0.5v3.5h-1.1V810.1z"/>
	<path id="XMLID_110_" d="M77.7,815.9c0,1.4,0.9,2,2,2c0.8,0,1.2-0.1,1.6-0.3l0.2,0.8c-0.4,0.2-1,0.4-1.9,0.4
		c-1.8,0-2.9-1.2-2.9-2.9s1-3.1,2.7-3.1c1.9,0,2.4,1.7,2.4,2.7c0,0.2,0,0.4,0,0.5H77.7z M80.8,815.1c0-0.7-0.3-1.7-1.5-1.7
		c-1.1,0-1.5,1-1.6,1.7H80.8z"/>
	<path id="XMLID_113_" d="M87.3,818.4c-0.3,0.1-0.9,0.3-1.7,0.3c-1.8,0-2.9-1.2-2.9-3c0-1.8,1.2-3.1,3.1-3.1c0.6,0,1.2,0.2,1.5,0.3
		l-0.2,0.8c-0.3-0.1-0.6-0.3-1.2-0.3c-1.3,0-2.1,1-2.1,2.2c0,1.3,0.9,2.2,2,2.2c0.6,0,1-0.2,1.3-0.3L87.3,818.4z"/>
	<path id="XMLID_115_" d="M89.5,815.4L89.5,815.4c0.2-0.2,0.4-0.5,0.5-0.7l1.7-2h1.3l-2.2,2.4l2.6,3.4h-1.3l-2-2.8l-0.5,0.6v2.2h-1
		v-8.5h1V815.4z"/>
	<path id="XMLID_130_" d="M94.7,815.9c0,1.4,0.9,2,2,2c0.8,0,1.2-0.1,1.6-0.3l0.2,0.8c-0.4,0.2-1,0.4-1.9,0.4
		c-1.8,0-2.9-1.2-2.9-2.9s1-3.1,2.7-3.1c1.9,0,2.4,1.7,2.4,2.7c0,0.2,0,0.4,0,0.5H94.7z M97.8,815.1c0-0.7-0.3-1.7-1.5-1.7
		c-1.1,0-1.5,1-1.6,1.7H97.8z"/>
	<path id="XMLID_133_" d="M100.1,814.6c0-0.7,0-1.3,0-1.8h0.9l0,1.1h0c0.3-0.8,0.9-1.3,1.6-1.3c0.1,0,0.2,0,0.3,0v1
		c-0.1,0-0.2,0-0.4,0c-0.7,0-1.3,0.6-1.4,1.4c0,0.1,0,0.3,0,0.5v3.1h-1V814.6z"/>
	<path id="XMLID_135_" d="M104.5,815.9c0,1.4,0.9,2,2,2c0.8,0,1.2-0.1,1.6-0.3l0.2,0.8c-0.4,0.2-1,0.4-1.9,0.4
		c-1.8,0-2.9-1.2-2.9-2.9s1-3.1,2.7-3.1c1.9,0,2.4,1.7,2.4,2.7c0,0.2,0,0.4,0,0.5H104.5z M107.6,815.1c0-0.7-0.3-1.7-1.5-1.7
		c-1.1,0-1.5,1-1.6,1.7H107.6z"/>
	<path id="XMLID_138_" d="M115,810.1v7c0,0.5,0,1.1,0,1.5h-0.9l0-1h0c-0.3,0.6-1,1.1-2,1.1c-1.4,0-2.5-1.2-2.5-3
		c0-1.9,1.2-3.1,2.6-3.1c0.9,0,1.5,0.4,1.8,0.9h0v-3.5H115z M113.9,815.1c0-0.1,0-0.3,0-0.4c-0.2-0.7-0.7-1.2-1.5-1.2
		c-1.1,0-1.7,1-1.7,2.2c0,1.2,0.6,2.1,1.7,2.1c0.7,0,1.4-0.5,1.5-1.3c0-0.1,0-0.3,0-0.5V815.1z"/>
	<path id="XMLID_141_" d="M119.3,810.6c0.5-0.1,1.2-0.2,1.9-0.2c1,0,1.7,0.2,2.2,0.6c0.4,0.3,0.7,0.8,0.7,1.4c0,0.8-0.5,1.5-1.4,1.8
		v0c0.8,0.2,1.7,0.8,1.7,2c0,0.7-0.3,1.2-0.7,1.6c-0.6,0.5-1.5,0.8-2.8,0.8c-0.7,0-1.3,0-1.6-0.1V810.6z M120.3,813.9h0.9
		c1.1,0,1.8-0.6,1.8-1.4c0-0.9-0.7-1.3-1.8-1.3c-0.5,0-0.8,0-0.9,0.1V813.9z M120.3,817.8c0.2,0,0.5,0,0.9,0c1.1,0,2.1-0.4,2.1-1.6
		c0-1.1-0.9-1.6-2.1-1.6h-0.9V817.8z"/>
	<path id="XMLID_145_" d="M131.1,815.6c0,2.1-1.5,3.1-2.9,3.1c-1.6,0-2.8-1.2-2.8-3c0-1.9,1.3-3.1,2.9-3.1
		C129.9,812.6,131.1,813.8,131.1,815.6z M126.5,815.7c0,1.3,0.7,2.2,1.8,2.2c1,0,1.8-0.9,1.8-2.3c0-1-0.5-2.2-1.7-2.2
		C127,813.4,126.5,814.6,126.5,815.7z"/>
	<path id="XMLID_148_" d="M135.6,818.6l-0.1-0.7h0c-0.3,0.5-0.9,0.9-1.8,0.9c-1.2,0-1.8-0.8-1.8-1.7c0-1.4,1.2-2.2,3.5-2.2v-0.1
		c0-0.5-0.1-1.3-1.3-1.3c-0.5,0-1.1,0.2-1.5,0.4l-0.2-0.7c0.5-0.3,1.2-0.5,1.9-0.5c1.8,0,2.2,1.2,2.2,2.4v2.2c0,0.5,0,1,0.1,1.4
		H135.6z M135.5,815.6c-1.2,0-2.5,0.2-2.5,1.3c0,0.7,0.5,1,1,1c0.8,0,1.2-0.5,1.4-1c0-0.1,0.1-0.2,0.1-0.3V815.6z"/>
	<path id="XMLID_151_" d="M138.2,814.6c0-0.7,0-1.3,0-1.8h0.9l0,1.1h0c0.3-0.8,0.9-1.3,1.6-1.3c0.1,0,0.2,0,0.3,0v1
		c-0.1,0-0.2,0-0.4,0c-0.7,0-1.3,0.6-1.4,1.4c0,0.1,0,0.3,0,0.5v3.1h-1V814.6z"/>
	<path id="XMLID_154_" d="M147,810.1v7c0,0.5,0,1.1,0,1.5h-0.9l0-1h0c-0.3,0.6-1,1.1-2,1.1c-1.4,0-2.5-1.2-2.5-3
		c0-1.9,1.2-3.1,2.6-3.1c0.9,0,1.5,0.4,1.8,0.9h0v-3.5H147z M146,815.1c0-0.1,0-0.3,0-0.4c-0.2-0.7-0.7-1.2-1.5-1.2
		c-1.1,0-1.7,1-1.7,2.2c0,1.2,0.6,2.1,1.7,2.1c0.7,0,1.4-0.5,1.5-1.3c0-0.1,0-0.3,0-0.5V815.1z"/>
	<path id="XMLID_157_" d="M151.4,818.6v-5h-0.8v-0.8h0.8v-0.3c0-0.8,0.2-1.6,0.7-2c0.4-0.4,0.9-0.5,1.4-0.5c0.4,0,0.7,0.1,0.9,0.2
		l-0.1,0.8c-0.2-0.1-0.4-0.1-0.7-0.1c-0.9,0-1.1,0.8-1.1,1.7v0.3h1.4v0.8h-1.4v5H151.4z"/>
	<path id="XMLID_159_" d="M159.9,815.6c0,2.1-1.5,3.1-2.9,3.1c-1.6,0-2.8-1.2-2.8-3c0-1.9,1.3-3.1,2.9-3.1
		C158.8,812.6,159.9,813.8,159.9,815.6z M155.3,815.7c0,1.3,0.7,2.2,1.8,2.2c1,0,1.8-0.9,1.8-2.3c0-1-0.5-2.2-1.7-2.2
		C155.8,813.4,155.3,814.6,155.3,815.7z"/>
	<path id="XMLID_162_" d="M161.2,814.6c0-0.7,0-1.3,0-1.8h0.9l0,1.1h0c0.3-0.8,0.9-1.3,1.6-1.3c0.1,0,0.2,0,0.3,0v1
		c-0.1,0-0.2,0-0.4,0c-0.7,0-1.3,0.6-1.4,1.4c0,0.1,0,0.3,0,0.5v3.1h-1V814.6z"/>
	<path id="XMLID_164_" d="M173.4,818.3c-0.4,0.2-1.2,0.4-2.1,0.4c-2.3,0-4-1.4-4-4.1c0-2.5,1.7-4.2,4.2-4.2c1,0,1.6,0.2,1.9,0.4
		l-0.3,0.9c-0.4-0.2-1-0.3-1.6-0.3c-1.9,0-3.2,1.2-3.2,3.3c0,2,1.1,3.3,3.1,3.3c0.6,0,1.3-0.1,1.7-0.3L173.4,818.3z"/>
	<path id="XMLID_166_" d="M177.8,818.6l-0.1-0.7h0c-0.3,0.5-0.9,0.9-1.8,0.9c-1.2,0-1.8-0.8-1.8-1.7c0-1.4,1.2-2.2,3.5-2.2v-0.1
		c0-0.5-0.1-1.3-1.3-1.3c-0.5,0-1.1,0.2-1.5,0.4l-0.2-0.7c0.5-0.3,1.2-0.5,1.9-0.5c1.8,0,2.2,1.2,2.2,2.4v2.2c0,0.5,0,1,0.1,1.4
		H177.8z M177.6,815.6c-1.2,0-2.5,0.2-2.5,1.3c0,0.7,0.5,1,1,1c0.8,0,1.2-0.5,1.4-1c0-0.1,0.1-0.2,0.1-0.3V815.6z"/>
	<path id="XMLID_169_" d="M180.4,814.3c0-0.6,0-1.1,0-1.6h0.9l0,0.9h0c0.3-0.6,0.9-1.1,1.8-1.1c0.8,0,1.4,0.5,1.6,1.2h0
		c0.2-0.3,0.4-0.6,0.6-0.8c0.3-0.3,0.7-0.4,1.3-0.4c0.8,0,1.9,0.5,1.9,2.5v3.4h-1v-3.3c0-1.1-0.4-1.8-1.3-1.8c-0.6,0-1.1,0.4-1.2,1
		c0,0.1-0.1,0.3-0.1,0.5v3.6h-1v-3.5c0-0.9-0.4-1.6-1.2-1.6c-0.7,0-1.1,0.5-1.3,1.1c-0.1,0.2-0.1,0.3-0.1,0.5v3.5h-1V814.3z"/>
	<path id="XMLID_171_" d="M191,815.9c0,1.4,0.9,2,2,2c0.8,0,1.2-0.1,1.6-0.3l0.2,0.8c-0.4,0.2-1,0.4-1.9,0.4c-1.8,0-2.9-1.2-2.9-2.9
		s1-3.1,2.7-3.1c1.9,0,2.4,1.7,2.4,2.7c0,0.2,0,0.4,0,0.5H191z M194.1,815.1c0-0.7-0.3-1.7-1.5-1.7c-1.1,0-1.5,1-1.6,1.7H194.1z"/>
	<path id="XMLID_174_" d="M196.4,814.6c0-0.7,0-1.3,0-1.8h0.9l0,1.1h0c0.3-0.8,0.9-1.3,1.6-1.3c0.1,0,0.2,0,0.3,0v1
		c-0.1,0-0.2,0-0.4,0c-0.7,0-1.3,0.6-1.4,1.4c0,0.1,0,0.3,0,0.5v3.1h-1V814.6z"/>
	<path id="XMLID_176_" d="M203.5,818.6l-0.1-0.7h0c-0.3,0.5-0.9,0.9-1.8,0.9c-1.2,0-1.8-0.8-1.8-1.7c0-1.4,1.2-2.2,3.5-2.2v-0.1
		c0-0.5-0.1-1.3-1.3-1.3c-0.5,0-1.1,0.2-1.5,0.4l-0.2-0.7c0.5-0.3,1.2-0.5,1.9-0.5c1.8,0,2.2,1.2,2.2,2.4v2.2c0,0.5,0,1,0.1,1.4
		H203.5z M203.3,815.6c-1.2,0-2.5,0.2-2.5,1.3c0,0.7,0.5,1,1,1c0.8,0,1.2-0.5,1.4-1c0-0.1,0.1-0.2,0.1-0.3V815.6z"/>
	<path id="XMLID_179_" d="M214.3,818.3c-0.4,0.2-1.2,0.4-2.1,0.4c-2.3,0-4-1.4-4-4.1c0-2.5,1.7-4.2,4.2-4.2c1,0,1.6,0.2,1.9,0.4
		l-0.3,0.9c-0.4-0.2-1-0.3-1.6-0.3c-1.9,0-3.2,1.2-3.2,3.3c0,2,1.1,3.3,3.1,3.3c0.6,0,1.3-0.1,1.7-0.3L214.3,818.3z"/>
	<path id="XMLID_181_" d="M218.7,818.6l-0.1-0.7h0c-0.3,0.5-0.9,0.9-1.8,0.9c-1.2,0-1.8-0.8-1.8-1.7c0-1.4,1.2-2.2,3.5-2.2v-0.1
		c0-0.5-0.1-1.3-1.3-1.3c-0.5,0-1.1,0.2-1.5,0.4l-0.2-0.7c0.5-0.3,1.2-0.5,1.9-0.5c1.8,0,2.2,1.2,2.2,2.4v2.2c0,0.5,0,1,0.1,1.4
		H218.7z M218.5,815.6c-1.2,0-2.5,0.2-2.5,1.3c0,0.7,0.5,1,1,1c0.8,0,1.2-0.5,1.4-1c0-0.1,0.1-0.2,0.1-0.3V815.6z"/>
	<path id="XMLID_184_" d="M221.2,810.1h1.1v8.5h-1.1V810.1z"/>
	<path id="XMLID_186_" d="M225.3,811.1c0,0.4-0.3,0.6-0.7,0.6c-0.4,0-0.6-0.3-0.6-0.6c0-0.4,0.3-0.7,0.7-0.7
		C225,810.5,225.3,810.8,225.3,811.1z M224.1,818.6v-5.8h1.1v5.8H224.1z"/>
	<path id="XMLID_189_" d="M226.8,818.6c0-0.4,0-1,0-1.5v-7h1v3.6h0c0.4-0.6,1-1.1,2-1.1c1.4,0,2.5,1.2,2.4,3c0,2.1-1.3,3.1-2.6,3.1
		c-0.8,0-1.5-0.3-1.9-1.1h0l0,1H226.8z M227.9,816.2c0,0.1,0,0.3,0,0.4c0.2,0.7,0.8,1.2,1.6,1.2c1.1,0,1.8-0.9,1.8-2.2
		c0-1.2-0.6-2.2-1.7-2.2c-0.7,0-1.4,0.5-1.6,1.3c0,0.1-0.1,0.3-0.1,0.4V816.2z"/>
	<path id="XMLID_192_" d="M233.7,814.6c0-0.7,0-1.3,0-1.8h0.9l0,1.1h0c0.3-0.8,0.9-1.3,1.6-1.3c0.1,0,0.2,0,0.3,0v1
		c-0.1,0-0.2,0-0.4,0c-0.7,0-1.3,0.6-1.4,1.4c0,0.1,0,0.3,0,0.5v3.1h-1V814.6z"/>
	<path id="XMLID_194_" d="M240.8,818.6l-0.1-0.7h0c-0.3,0.5-0.9,0.9-1.8,0.9c-1.2,0-1.8-0.8-1.8-1.7c0-1.4,1.2-2.2,3.5-2.2v-0.1
		c0-0.5-0.1-1.3-1.3-1.3c-0.5,0-1.1,0.2-1.5,0.4l-0.2-0.7c0.5-0.3,1.2-0.5,1.9-0.5c1.8,0,2.2,1.2,2.2,2.4v2.2c0,0.5,0,1,0.1,1.4
		H240.8z M240.6,815.6c-1.2,0-2.5,0.2-2.5,1.3c0,0.7,0.5,1,1,1c0.8,0,1.2-0.5,1.4-1c0-0.1,0.1-0.2,0.1-0.3V815.6z"/>
	<path id="XMLID_197_" d="M244.6,811.1v1.7h1.5v0.8h-1.5v3.1c0,0.7,0.2,1.1,0.8,1.1c0.3,0,0.5,0,0.6-0.1l0,0.8
		c-0.2,0.1-0.5,0.1-0.9,0.1c-0.5,0-0.9-0.2-1.1-0.4c-0.3-0.3-0.4-0.8-0.4-1.5v-3.2h-0.9v-0.8h0.9v-1.4L244.6,811.1z"/>
	<path id="XMLID_199_" d="M248.5,811.1c0,0.4-0.3,0.6-0.7,0.6c-0.4,0-0.6-0.3-0.6-0.6c0-0.4,0.3-0.7,0.7-0.7
		C248.2,810.5,248.5,810.8,248.5,811.1z M247.3,818.6v-5.8h1.1v5.8H247.3z"/>
	<path id="XMLID_202_" d="M255.3,815.6c0,2.1-1.5,3.1-2.9,3.1c-1.6,0-2.8-1.2-2.8-3c0-1.9,1.3-3.1,2.9-3.1
		C254.2,812.6,255.3,813.8,255.3,815.6z M250.7,815.7c0,1.3,0.7,2.2,1.8,2.2c1,0,1.8-0.9,1.8-2.3c0-1-0.5-2.2-1.7-2.2
		C251.3,813.4,250.7,814.6,250.7,815.7z"/>
	<path id="XMLID_205_" d="M256.7,814.3c0-0.6,0-1.1,0-1.6h0.9l0.1,1h0c0.3-0.6,1-1.1,1.9-1.1c0.8,0,2.1,0.5,2.1,2.5v3.5h-1.1v-3.3
		c0-0.9-0.3-1.7-1.3-1.7c-0.7,0-1.2,0.5-1.4,1.1c0,0.1-0.1,0.3-0.1,0.5v3.5h-1.1V814.3z"/>
	<path id="XMLID_207_" d="M263.1,817.9c0-0.4,0.3-0.8,0.7-0.8s0.7,0.3,0.7,0.8c0,0.4-0.3,0.8-0.7,0.8
		C263.4,818.7,263.1,818.4,263.1,817.9z"/>
	<path id="XMLID_209_" d="M268.3,817.4c0.3,0.2,1,0.5,1.7,0.5c1.4,0,1.8-0.9,1.8-1.5c0-1.1-1-1.6-2-1.6h-0.6V814h0.6
		c0.8,0,1.7-0.4,1.7-1.3c0-0.6-0.4-1.2-1.4-1.2c-0.6,0-1.2,0.3-1.6,0.5l-0.3-0.8c0.4-0.3,1.2-0.6,2-0.6c1.5,0,2.2,0.9,2.2,1.9
		c0,0.8-0.5,1.5-1.4,1.8v0c1,0.2,1.7,0.9,1.7,2c0,1.2-1,2.3-2.8,2.3c-0.9,0-1.6-0.3-2-0.5L268.3,817.4z"/>
	<path id="XMLID_211_" d="M279.4,814.6c0,2.7-1,4.1-2.7,4.1c-1.5,0-2.6-1.4-2.6-4c0-2.6,1.1-4.1,2.7-4.1
		C278.4,810.6,279.4,812.1,279.4,814.6z M275.1,814.7c0,2,0.6,3.2,1.6,3.2c1.1,0,1.6-1.3,1.6-3.3c0-1.9-0.5-3.2-1.6-3.2
		C275.8,811.5,275.1,812.6,275.1,814.7z"/>
	<path id="XMLID_214_" d="M281.2,812.8l0.8,1.2c0.2,0.3,0.4,0.6,0.6,0.9h0c0.2-0.3,0.4-0.6,0.6-1l0.8-1.2h1.1l-2,2.8l2,3H284
		l-0.9-1.3c-0.2-0.3-0.4-0.7-0.6-1h0c-0.2,0.3-0.4,0.7-0.6,1l-0.8,1.3h-1.2l2.1-3l-2-2.8H281.2z"/>
	<path id="XMLID_216_" d="M286.1,817.4c0.3,0.2,1,0.5,1.7,0.5c1.4,0,1.8-0.9,1.8-1.5c0-1.1-1-1.6-2-1.6H287V814h0.6
		c0.8,0,1.7-0.4,1.7-1.3c0-0.6-0.4-1.2-1.4-1.2c-0.6,0-1.2,0.3-1.6,0.5l-0.3-0.8c0.4-0.3,1.2-0.6,2-0.6c1.5,0,2.2,0.9,2.2,1.9
		c0,0.8-0.5,1.5-1.4,1.8v0c1,0.2,1.7,0.9,1.7,2c0,1.2-1,2.3-2.8,2.3c-0.9,0-1.6-0.3-2-0.5L286.1,817.4z"/>
	<path id="XMLID_218_" d="M297.2,814.6c0,2.7-1,4.1-2.7,4.1c-1.5,0-2.6-1.4-2.6-4c0-2.6,1.1-4.1,2.7-4.1
		C296.3,810.6,297.2,812.1,297.2,814.6z M293,814.7c0,2,0.6,3.2,1.6,3.2c1.1,0,1.6-1.3,1.6-3.3c0-1.9-0.5-3.2-1.6-3.2
		C293.7,811.5,293,812.6,293,814.7z"/>
	<path id="XMLID_221_" d="M298.5,814.3c0-0.6,0-1.1,0-1.6h0.9l0,0.9h0c0.3-0.6,0.9-1.1,1.8-1.1c0.8,0,1.4,0.5,1.6,1.2h0
		c0.2-0.3,0.4-0.6,0.6-0.8c0.3-0.3,0.7-0.4,1.3-0.4c0.8,0,1.9,0.5,1.9,2.5v3.4h-1v-3.3c0-1.1-0.4-1.8-1.3-1.8c-0.6,0-1.1,0.4-1.2,1
		c0,0.1-0.1,0.3-0.1,0.5v3.6h-1v-3.5c0-0.9-0.4-1.6-1.2-1.6c-0.7,0-1.1,0.5-1.3,1.1c-0.1,0.2-0.1,0.3-0.1,0.5v3.5h-1V814.3z"/>
	<path id="XMLID_223_" d="M308.6,814.3c0-0.6,0-1.1,0-1.6h0.9l0,0.9h0c0.3-0.6,0.9-1.1,1.8-1.1c0.8,0,1.4,0.5,1.6,1.2h0
		c0.2-0.3,0.4-0.6,0.6-0.8c0.3-0.3,0.7-0.4,1.3-0.4c0.8,0,1.9,0.5,1.9,2.5v3.4h-1v-3.3c0-1.1-0.4-1.8-1.3-1.8c-0.6,0-1.1,0.4-1.2,1
		c0,0.1-0.1,0.3-0.1,0.5v3.6h-1v-3.5c0-0.9-0.4-1.6-1.2-1.6c-0.7,0-1.1,0.5-1.3,1.1c-0.1,0.2-0.1,0.3-0.1,0.5v3.5h-1V814.3z"/>
	<path id="XMLID_225_" d="M321,817.3c0.5,0.3,1.2,0.5,1.9,0.5c1.1,0,1.7-0.6,1.7-1.4c0-0.8-0.4-1.2-1.5-1.6
		c-1.3-0.5-2.1-1.2-2.1-2.3c0-1.3,1-2.2,2.6-2.2c0.8,0,1.4,0.2,1.8,0.4l-0.3,0.9c-0.3-0.1-0.8-0.4-1.5-0.4c-1.1,0-1.5,0.7-1.5,1.2
		c0,0.8,0.5,1.1,1.6,1.6c1.4,0.5,2.1,1.2,2.1,2.4c0,1.2-0.9,2.3-2.8,2.3c-0.8,0-1.6-0.2-2.1-0.5L321,817.3z"/>
	<path id="XMLID_227_" d="M331.1,817.7L331.1,817.7c-0.3,0.6-1,1-1.9,1c-1.4,0-2.5-1.2-2.5-2.9c0-2.2,1.4-3.1,2.6-3.1
		c0.9,0,1.5,0.4,1.8,1h0l0-0.9h1c0,0.5,0,1,0,1.6v6.6h-1.1V817.7z M331.1,815.1c0-0.1,0-0.3,0-0.4c-0.2-0.6-0.7-1.2-1.5-1.2
		c-1.1,0-1.8,0.9-1.8,2.2c0,1.2,0.6,2.2,1.7,2.2c0.7,0,1.3-0.4,1.5-1.2c0-0.1,0.1-0.3,0.1-0.5V815.1z"/>
	<path id="XMLID_230_" d="M338.7,817c0,0.6,0,1.1,0,1.6h-0.9l-0.1-0.9h0c-0.3,0.5-0.9,1.1-1.9,1.1c-0.9,0-2-0.5-2-2.5v-3.4h1.1v3.2
		c0,1.1,0.3,1.8,1.3,1.8c0.7,0,1.2-0.5,1.4-1c0.1-0.2,0.1-0.3,0.1-0.5v-3.6h1.1V817z"/>
	<path id="XMLID_232_" d="M343.7,818.6l-0.1-0.7h0c-0.3,0.5-0.9,0.9-1.8,0.9c-1.2,0-1.8-0.8-1.8-1.7c0-1.4,1.2-2.2,3.5-2.2v-0.1
		c0-0.5-0.1-1.3-1.3-1.3c-0.5,0-1.1,0.2-1.5,0.4l-0.2-0.7c0.5-0.3,1.2-0.5,1.9-0.5c1.8,0,2.2,1.2,2.2,2.4v2.2c0,0.5,0,1,0.1,1.4
		H343.7z M343.5,815.6c-1.2,0-2.5,0.2-2.5,1.3c0,0.7,0.5,1,1,1c0.8,0,1.2-0.5,1.4-1c0-0.1,0.1-0.2,0.1-0.3V815.6z"/>
	<path id="XMLID_235_" d="M346.2,814.6c0-0.7,0-1.3,0-1.8h0.9l0,1.1h0c0.3-0.8,0.9-1.3,1.6-1.3c0.1,0,0.2,0,0.3,0v1
		c-0.1,0-0.2,0-0.4,0c-0.7,0-1.3,0.6-1.4,1.4c0,0.1,0,0.3,0,0.5v3.1h-1V814.6z"/>
	<path id="XMLID_237_" d="M350.6,815.9c0,1.4,0.9,2,2,2c0.8,0,1.2-0.1,1.6-0.3l0.2,0.8c-0.4,0.2-1,0.4-1.9,0.4
		c-1.8,0-2.9-1.2-2.9-2.9s1-3.1,2.7-3.1c1.9,0,2.4,1.7,2.4,2.7c0,0.2,0,0.4,0,0.5H350.6z M353.7,815.1c0-0.7-0.3-1.7-1.5-1.7
		c-1.1,0-1.5,1-1.6,1.7H353.7z"/>
	<path id="XMLID_240_" d="M355.9,817.5c0.3,0.2,0.9,0.4,1.4,0.4c0.8,0,1.1-0.4,1.1-0.9c0-0.5-0.3-0.8-1.1-1.1
		c-1-0.4-1.5-0.9-1.5-1.6c0-0.9,0.8-1.7,2-1.7c0.6,0,1.1,0.2,1.4,0.4l-0.3,0.8c-0.2-0.1-0.6-0.3-1.2-0.3c-0.6,0-1,0.4-1,0.8
		c0,0.5,0.3,0.7,1.1,1c1,0.4,1.5,0.9,1.5,1.8c0,1-0.8,1.7-2.2,1.7c-0.6,0-1.2-0.2-1.6-0.4L355.9,817.5z"/>
	<path id="XMLID_242_" d="M360.4,817.9c0-0.4,0.3-0.8,0.7-0.8s0.7,0.3,0.7,0.8c0,0.4-0.3,0.8-0.7,0.8
		C360.7,818.7,360.4,818.4,360.4,817.9z"/>
	<path id="XMLID_244_" d="M366,817.8c0.2,0,0.5,0,0.9,0c0.6-0.1,1.2-0.3,1.6-0.8c0.5-0.5,0.9-1.2,1-2.1h0c-0.4,0.5-1.1,0.8-1.8,0.8
		c-1.4,0-2.3-1.1-2.3-2.4c0-1.5,1.1-2.8,2.7-2.8s2.6,1.3,2.6,3.3c0,1.7-0.6,2.9-1.3,3.7c-0.6,0.6-1.4,0.9-2.3,1
		c-0.4,0.1-0.7,0.1-1,0.1V817.8z M366.4,813.3c0,1,0.6,1.7,1.5,1.7c0.7,0,1.3-0.3,1.5-0.8c0.1-0.1,0.1-0.2,0.1-0.4
		c0-1.3-0.5-2.4-1.6-2.4C367,811.4,366.4,812.2,366.4,813.3z"/>
	<path id="XMLID_247_" d="M374.9,812.8l0.8,1.2c0.2,0.3,0.4,0.6,0.6,0.9h0c0.2-0.3,0.4-0.6,0.6-1l0.8-1.2h1.1l-2,2.8l2,3h-1.2
		l-0.9-1.3c-0.2-0.3-0.4-0.7-0.6-1h0c-0.2,0.3-0.4,0.7-0.6,1l-0.8,1.3h-1.2l2.1-3l-2-2.8H374.9z"/>
	<path id="XMLID_249_" d="M384.5,811.8L384.5,811.8l-1.4,0.7l-0.2-0.8l1.7-0.9h0.9v7.8h-1V811.8z"/>
	<path id="XMLID_251_" d="M388.6,817.4c0.3,0.2,1,0.5,1.7,0.5c1.4,0,1.8-0.9,1.8-1.5c0-1.1-1-1.6-2-1.6h-0.6V814h0.6
		c0.8,0,1.7-0.4,1.7-1.3c0-0.6-0.4-1.2-1.4-1.2c-0.6,0-1.2,0.3-1.6,0.5l-0.3-0.8c0.4-0.3,1.2-0.6,2-0.6c1.5,0,2.2,0.9,2.2,1.9
		c0,0.8-0.5,1.5-1.4,1.8v0c1,0.2,1.7,0.9,1.7,2c0,1.2-1,2.3-2.8,2.3c-0.9,0-1.6-0.3-2-0.5L388.6,817.4z"/>
	<path id="XMLID_253_" d="M394.6,817.9c0-0.4,0.3-0.8,0.7-0.8s0.7,0.3,0.7,0.8c0,0.4-0.3,0.8-0.7,0.8
		C394.9,818.7,394.6,818.4,394.6,817.9z"/>
	<path id="XMLID_255_" d="M406.7,815c-0.1-1.1-0.1-2.5-0.1-3.5h0c-0.3,0.9-0.6,2-1,3.1l-1.4,3.9h-0.8l-1.3-3.8
		c-0.4-1.1-0.7-2.2-0.9-3.1h0c0,1-0.1,2.4-0.2,3.6l-0.2,3.5h-1l0.6-8.1h1.3l1.4,3.9c0.3,1,0.6,1.9,0.8,2.7h0
		c0.2-0.8,0.5-1.7,0.9-2.7l1.4-3.9h1.3l0.5,8.1h-1L406.7,815z"/>
	<path id="XMLID_257_" d="M409.5,810.6c0.5-0.1,1.2-0.2,2-0.2c1,0,1.8,0.2,2.3,0.7c0.4,0.4,0.7,1,0.7,1.7c0,0.7-0.2,1.3-0.6,1.7
		c-0.6,0.6-1.5,0.9-2.5,0.9c-0.3,0-0.6,0-0.8-0.1v3.2h-1V810.6z M410.6,814.5c0.2,0.1,0.5,0.1,0.9,0.1c1.3,0,2-0.6,2-1.7
		c0-1.1-0.8-1.6-1.9-1.6c-0.5,0-0.8,0-1,0.1V814.5z"/>
	<path id="XMLID_260_" d="M417,810.5v8.1h-1v-8.1H417z"/>
	<path id="XMLID_262_" d="M421.2,818.6c0-0.4,0-1,0-1.5v-7h1v3.6h0c0.4-0.6,1-1.1,2-1.1c1.4,0,2.5,1.2,2.4,3c0,2.1-1.3,3.1-2.6,3.1
		c-0.8,0-1.5-0.3-1.9-1.1h0l0,1H421.2z M422.3,816.2c0,0.1,0,0.3,0,0.4c0.2,0.7,0.8,1.2,1.6,1.2c1.1,0,1.8-0.9,1.8-2.2
		c0-1.2-0.6-2.2-1.7-2.2c-0.7,0-1.4,0.5-1.6,1.3c0,0.1-0.1,0.3-0.1,0.4V816.2z"/>
	<path id="XMLID_265_" d="M429.3,811.1c0,0.4-0.3,0.6-0.7,0.6c-0.4,0-0.6-0.3-0.6-0.6c0-0.4,0.3-0.7,0.7-0.7
		C429,810.5,429.3,810.8,429.3,811.1z M428.1,818.6v-5.8h1.1v5.8H428.1z"/>
	<path id="XMLID_268_" d="M436.2,815.6c0,2.1-1.5,3.1-2.9,3.1c-1.6,0-2.8-1.2-2.8-3c0-1.9,1.3-3.1,2.9-3.1
		C435.1,812.6,436.2,813.8,436.2,815.6z M431.6,815.7c0,1.3,0.7,2.2,1.8,2.2c1,0,1.8-0.9,1.8-2.3c0-1-0.5-2.2-1.7-2.2
		C432.1,813.4,431.6,814.6,431.6,815.7z"/>
	<path id="XMLID_271_" d="M437.6,810.5h1v3.9h0c0.2-0.3,0.4-0.6,0.6-0.9l2.5-3h1.3l-2.9,3.4l3.2,4.7H442l-2.7-4l-0.8,0.9v3.1h-1
		V810.5z"/>
	<path id="XMLID_273_" d="M444.2,812.8l1.3,3.4c0.1,0.4,0.3,0.8,0.4,1.2h0c0.1-0.3,0.2-0.8,0.4-1.2l1.2-3.4h1.1l-1.6,4.1
		c-0.8,2-1.3,3-2,3.6c-0.5,0.5-1,0.6-1.3,0.7l-0.3-0.9c0.3-0.1,0.6-0.3,0.9-0.5c0.3-0.2,0.6-0.6,0.9-1.2c0-0.1,0.1-0.2,0.1-0.3
		c0-0.1,0-0.1-0.1-0.3l-2.1-5.3H444.2z"/>
	<path id="XMLID_275_" d="M449.4,818.6c0-0.4,0-1,0-1.5v-7h1v3.6h0c0.4-0.6,1-1.1,2-1.1c1.4,0,2.5,1.2,2.4,3c0,2.1-1.3,3.1-2.6,3.1
		c-0.8,0-1.5-0.3-1.9-1.1h0l0,1H449.4z M450.5,816.2c0,0.1,0,0.3,0,0.4c0.2,0.7,0.8,1.2,1.6,1.2c1.1,0,1.8-0.9,1.8-2.2
		c0-1.2-0.6-2.2-1.7-2.2c-0.7,0-1.4,0.5-1.6,1.3c0,0.1-0.1,0.3-0.1,0.4V816.2z"/>
	<path id="XMLID_278_" d="M455.3,820c0.3-0.7,0.6-2,0.7-2.9l1.2-0.1c-0.3,1-0.8,2.4-1.1,2.9L455.3,820z"/>
	<path id="XMLID_280_" d="M461.1,810.6c0.5-0.1,1.2-0.2,2-0.2c1,0,1.8,0.2,2.3,0.7c0.4,0.4,0.7,1,0.7,1.7c0,0.7-0.2,1.3-0.6,1.7
		c-0.6,0.6-1.5,0.9-2.5,0.9c-0.3,0-0.6,0-0.8-0.1v3.2h-1V810.6z M462.1,814.5c0.2,0.1,0.5,0.1,0.9,0.1c1.3,0,2-0.6,2-1.7
		c0-1.1-0.8-1.6-1.9-1.6c-0.5,0-0.8,0-1,0.1V814.5z"/>
	<path id="XMLID_283_" d="M465.5,817.9c0-0.4,0.3-0.8,0.7-0.8s0.7,0.3,0.7,0.8c0,0.4-0.3,0.8-0.7,0.8
		C465.8,818.7,465.5,818.4,465.5,817.9z"/>
	<path id="XMLID_285_" d="M470.8,810.6c0.5-0.1,1.2-0.2,2-0.2c1,0,1.8,0.2,2.3,0.7c0.4,0.4,0.7,1,0.7,1.7c0,0.7-0.2,1.3-0.6,1.7
		c-0.6,0.6-1.5,0.9-2.5,0.9c-0.3,0-0.6,0-0.8-0.1v3.2h-1V810.6z M471.9,814.5c0.2,0.1,0.5,0.1,0.9,0.1c1.3,0,2-0.6,2-1.7
		c0-1.1-0.8-1.6-1.9-1.6c-0.5,0-0.8,0-1,0.1V814.5z"/>
	<path id="XMLID_288_" d="M482.1,815.6c0,2.1-1.5,3.1-2.9,3.1c-1.6,0-2.8-1.2-2.8-3c0-1.9,1.3-3.1,2.9-3.1
		C481,812.6,482.1,813.8,482.1,815.6z M477.5,815.7c0,1.3,0.7,2.2,1.8,2.2c1,0,1.8-0.9,1.8-2.3c0-1-0.5-2.2-1.7-2.2
		C478,813.4,477.5,814.6,477.5,815.7z"/>
	<path id="XMLID_291_" d="M483.8,812.8l1.1,3.3c0.2,0.5,0.3,1,0.5,1.5h0c0.1-0.5,0.3-1,0.5-1.5l1.1-3.3h1.1l-2.3,5.8h-1l-2.2-5.8
		H483.8z"/>
	<path id="XMLID_293_" d="M494.3,815.6c0,2.1-1.5,3.1-2.9,3.1c-1.6,0-2.8-1.2-2.8-3c0-1.9,1.3-3.1,2.9-3.1
		C493.1,812.6,494.3,813.8,494.3,815.6z M489.7,815.7c0,1.3,0.7,2.2,1.8,2.2c1,0,1.8-0.9,1.8-2.3c0-1-0.5-2.2-1.7-2.2
		C490.2,813.4,489.7,814.6,489.7,815.7z"/>
	<path id="XMLID_296_" d="M495.6,810.1h1.1v8.5h-1.1V810.1z"/>
	<path id="XMLID_298_" d="M498.4,814.3c0-0.6,0-1.1,0-1.6h0.9l0.1,1h0c0.3-0.6,1-1.1,1.9-1.1c0.8,0,2.1,0.5,2.1,2.5v3.5h-1.1v-3.3
		c0-0.9-0.3-1.7-1.3-1.7c-0.7,0-1.2,0.5-1.4,1.1c0,0.1-0.1,0.3-0.1,0.5v3.5h-1.1V814.3z"/>
	<path id="XMLID_300_" d="M506.3,811.1c0,0.4-0.3,0.6-0.7,0.6c-0.4,0-0.6-0.3-0.6-0.6c0-0.4,0.3-0.7,0.7-0.7
		C506,810.5,506.3,810.8,506.3,811.1z M505.1,818.6v-5.8h1.1v5.8H505.1z"/>
	<path id="XMLID_303_" d="M507.2,820c0.3-0.7,0.6-2,0.7-2.9l1.2-0.1c-0.3,1-0.8,2.4-1.1,2.9L507.2,820z"/>
	<path id="XMLID_305_" d="M517.8,814.6c0,2.7-1,4.1-2.7,4.1c-1.5,0-2.6-1.4-2.6-4c0-2.6,1.1-4.1,2.7-4.1
		C516.8,810.6,517.8,812.1,517.8,814.6z M513.5,814.7c0,2,0.6,3.2,1.6,3.2c1.1,0,1.6-1.3,1.6-3.3c0-1.9-0.5-3.2-1.6-3.2
		C514.2,811.5,513.5,812.6,513.5,814.7z"/>
	<path id="XMLID_308_" d="M518.8,818.6v-0.6l0.8-0.8c2-1.9,2.9-2.9,2.9-4.1c0-0.8-0.4-1.5-1.5-1.5c-0.7,0-1.3,0.4-1.7,0.7l-0.3-0.7
		c0.5-0.5,1.3-0.8,2.2-0.8c1.7,0,2.4,1.2,2.4,2.3c0,1.4-1,2.6-2.7,4.2l-0.6,0.6v0h3.5v0.9H518.8z"/>
	<path id="XMLID_310_" d="M524.4,819l3.3-8.7h0.8l-3.4,8.7H524.4z"/>
	<path id="XMLID_312_" d="M529,818.6v-0.6l0.8-0.8c2-1.9,2.9-2.9,2.9-4.1c0-0.8-0.4-1.5-1.5-1.5c-0.7,0-1.3,0.4-1.7,0.7l-0.3-0.7
		c0.5-0.5,1.3-0.8,2.2-0.8c1.7,0,2.4,1.2,2.4,2.3c0,1.4-1,2.6-2.7,4.2l-0.6,0.6v0h3.5v0.9H529z"/>
	<path id="XMLID_314_" d="M538.4,818.6v-2.1h-3.6v-0.7l3.5-5h1.1v4.8h1.1v0.8h-1.1v2.1H538.4z M538.4,815.6V813c0-0.4,0-0.8,0-1.2h0
		c-0.2,0.5-0.4,0.8-0.6,1.2l-1.9,2.7v0H538.4z"/>
</g>
<g id="XMLID_105_">
</g>
<g id="XMLID_317_">
</g>
<g id="XMLID_318_">
</g>
<g id="XMLID_319_">
</g>
<g id="XMLID_320_">
</g>
<g id="XMLID_321_">
</g>
</svg>
