<?xml version="1.0" encoding="utf-8"?>
<!-- Generator: Adobe Illustrator 19.0.0, SVG Export Plug-In . SVG Version: 6.00 Build 0)  -->
<svg version="1.1" id="Ebene_1" xmlns="http://www.w3.org/2000/svg" xmlns:xlink="http://www.w3.org/1999/xlink" x="0px" y="0px"
	 viewBox="0 0 1190.6 841.9" style="enable-background:new 0 0 1190.6 841.9;" xml:space="preserve">
<style type="text/css">
	.st0{fill:#FFFFFF;}
	.st1{font-family:'MyriadPro-Regular';}
	.st2{font-size:12px;}
</style>
<rect id="XMLID_27_" x="42.5" y="28.3" width="85" height="85"/>
<rect id="XMLID_44_" x="127.6" y="28.3" class="st0" width="85" height="85"/>
<rect id="XMLID_153_" x="212.6" y="28.3" width="85" height="85"/>
<rect id="XMLID_2_" x="297.6" y="28.3" class="st0" width="85" height="85"/>
<rect id="XMLID_1_" x="382.7" y="28.3" width="85" height="85"/>
<rect id="XMLID_4_" x="467.7" y="28.3" class="st0" width="85" height="85"/>
<rect id="XMLID_3_" x="552.8" y="28.3" width="85" height="85"/>
<rect id="XMLID_6_" x="637.8" y="28.3" class="st0" width="85" height="85"/>
<rect id="XMLID_5_" x="722.8" y="28.3" width="85" height="85"/>
<rect id="XMLID_8_" x="807.9" y="28.3" class="st0" width="85" height="85"/>
<rect id="XMLID_7_" x="892.9" y="28.3" width="85" height="85"/>
<rect id="XMLID_10_" x="978" y="28.3" class="st0" width="85" height="85"/>
<rect id="XMLID_9_" x="1063" y="28.3" width="85" height="85"/>
<rect id="XMLID_22_" x="42.5" y="113.4" class="st0" width="85" height="85"/>
<rect id="XMLID_21_" x="127.6" y="113.4" width="85" height="85"/>
<rect id="XMLID_20_" x="212.6" y="113.4" class="st0" width="85" height="85"/>
<rect id="XMLID_19_" x="297.6" y="113.4" width="85" height="85"/>
<rect id="XMLID_18_" x="382.7" y="113.4" class="st0" width="85" height="85"/>
<rect id="XMLID_17_" x="467.7" y="113.4" width="85" height="85"/>
<rect id="XMLID_16_" x="552.8" y="113.4" class="st0" width="85" height="85"/>
<rect id="XMLID_15_" x="637.8" y="113.4" width="85" height="85"/>
<rect id="XMLID_14_" x="722.8" y="113.4" class="st0" width="85" height="85"/>
<rect id="XMLID_13_" x="807.9" y="113.4" width="85" height="85"/>
<rect id="XMLID_12_" x="892.9" y="113.4" class="st0" width="85" height="85"/>
<rect id="XMLID_11_" x="978" y="113.4" width="85" height="85"/>
<rect id="XMLID_23_" x="1063" y="113.4" class="st0" width="85" height="85"/>
<rect id="XMLID_51_" x="42.5" y="198.4" width="85" height="85"/>
<rect id="XMLID_50_" x="127.6" y="198.4" class="st0" width="85" height="85"/>
<rect id="XMLID_49_" x="212.6" y="198.4" width="85" height="85"/>
<rect id="XMLID_48_" x="297.6" y="198.4" class="st0" width="85" height="85"/>
<rect id="XMLID_47_" x="382.7" y="198.4" width="85" height="85"/>
<rect id="XMLID_46_" x="467.7" y="198.4" class="st0" width="85" height="85"/>
<rect id="XMLID_45_" x="552.8" y="198.4" width="85" height="85"/>
<rect id="XMLID_43_" x="637.8" y="198.4" class="st0" width="85" height="85"/>
<rect id="XMLID_42_" x="722.8" y="198.4" width="85" height="85"/>
<rect id="XMLID_41_" x="807.9" y="198.4" class="st0" width="85" height="85"/>
<rect id="XMLID_40_" x="892.9" y="198.4" width="85" height="85"/>
<rect id="XMLID_39_" x="978" y="198.4" class="st0" width="85" height="85"/>
<rect id="XMLID_38_" x="1063" y="198.4" width="85" height="85"/>
<rect id="XMLID_37_" x="42.5" y="283.5" class="st0" width="85" height="85"/>
<rect id="XMLID_36_" x="127.6" y="283.5" width="85" height="85"/>
<rect id="XMLID_35_" x="212.6" y="283.5" class="st0" width="85" height="85"/>
<rect id="XMLID_34_" x="297.6" y="283.5" width="85" height="85"/>
<rect id="XMLID_33_" x="382.7" y="283.5" class="st0" width="85" height="85"/>
<rect id="XMLID_32_" x="467.7" y="283.5" width="85" height="85"/>
<rect id="XMLID_31_" x="552.8" y="283.5" class="st0" width="85" height="85"/>
<rect id="XMLID_30_" x="637.8" y="283.5" width="85" height="85"/>
<rect id="XMLID_29_" x="722.8" y="283.5" class="st0" width="85" height="85"/>
<rect id="XMLID_28_" x="807.9" y="283.5" width="85" height="85"/>
<rect id="XMLID_26_" x="892.9" y="283.5" class="st0" width="85" height="85"/>
<rect id="XMLID_25_" x="978" y="283.5" width="85" height="85"/>
<rect id="XMLID_24_" x="1063" y="283.5" class="st0" width="85" height="85"/>
<rect id="XMLID_103_" x="42.5" y="368.5" width="85" height="85"/>
<rect id="XMLID_102_" x="127.6" y="368.5" class="st0" width="85" height="85"/>
<rect id="XMLID_101_" x="212.6" y="368.5" width="85" height="85"/>
<rect id="XMLID_100_" x="297.6" y="368.5" class="st0" width="85" height="85"/>
<rect id="XMLID_99_" x="382.7" y="368.5" width="85" height="85"/>
<rect id="XMLID_98_" x="467.7" y="368.5" class="st0" width="85" height="85"/>
<rect id="XMLID_97_" x="552.8" y="368.5" width="85" height="85"/>
<rect id="XMLID_96_" x="637.8" y="368.5" class="st0" width="85" height="85"/>
<rect id="XMLID_95_" x="722.8" y="368.5" width="85" height="85"/>
<rect id="XMLID_94_" x="807.9" y="368.5" class="st0" width="85" height="85"/>
<rect id="XMLID_93_" x="892.9" y="368.5" width="85" height="85"/>
<rect id="XMLID_92_" x="978" y="368.5" class="st0" width="85" height="85"/>
<rect id="XMLID_91_" x="1063" y="368.5" width="85" height="85"/>
<rect id="XMLID_90_" x="42.5" y="453.5" class="st0" width="85" height="85"/>
<rect id="XMLID_89_" x="127.6" y="453.5" width="85" height="85"/>
<rect id="XMLID_88_" x="212.6" y="453.5" class="st0" width="85" height="85"/>
<rect id="XMLID_87_" x="297.6" y="453.5" width="85" height="85"/>
<rect id="XMLID_86_" x="382.7" y="453.5" class="st0" width="85" height="85"/>
<rect id="XMLID_85_" x="467.7" y="453.5" width="85" height="85"/>
<rect id="XMLID_84_" x="552.8" y="453.5" class="st0" width="85" height="85"/>
<rect id="XMLID_83_" x="637.8" y="453.5" width="85" height="85"/>
<rect id="XMLID_82_" x="722.8" y="453.5" class="st0" width="85" height="85"/>
<rect id="XMLID_81_" x="807.9" y="453.5" width="85" height="85"/>
<rect id="XMLID_80_" x="892.9" y="453.5" class="st0" width="85" height="85"/>
<rect id="XMLID_79_" x="978" y="453.5" width="85" height="85"/>
<rect id="XMLID_78_" x="1063" y="453.5" class="st0" width="85" height="85"/>
<rect id="XMLID_77_" x="42.5" y="538.6" width="85" height="85"/>
<rect id="XMLID_76_" x="127.6" y="538.6" class="st0" width="85" height="85"/>
<rect id="XMLID_75_" x="212.6" y="538.6" width="85" height="85"/>
<rect id="XMLID_74_" x="297.6" y="538.6" class="st0" width="85" height="85"/>
<rect id="XMLID_73_" x="382.7" y="538.6" width="85" height="85"/>
<rect id="XMLID_72_" x="467.7" y="538.6" class="st0" width="85" height="85"/>
<rect id="XMLID_71_" x="552.8" y="538.6" width="85" height="85"/>
<rect id="XMLID_70_" x="637.8" y="538.6" class="st0" width="85" height="85"/>
<rect id="XMLID_69_" x="722.8" y="538.6" width="85" height="85"/>
<rect id="XMLID_68_" x="807.9" y="538.6" class="st0" width="85" height="85"/>
<rect id="XMLID_67_" x="892.9" y="538.6" width="85" height="85"/>
<rect id="XMLID_66_" x="978" y="538.6" class="st0" width="85" height="85"/>
<rect id="XMLID_65_" x="1063" y="538.6" width="85" height="85"/>
<rect id="XMLID_64_" x="42.5" y="623.6" class="st0" width="85" height="85"/>
<rect id="XMLID_63_" x="127.6" y="623.6" width="85" height="85"/>
<rect id="XMLID_62_" x="212.6" y="623.6" class="st0" width="85" height="85"/>
<rect id="XMLID_61_" x="297.6" y="623.6" width="85" height="85"/>
<rect id="XMLID_60_" x="382.7" y="623.6" class="st0" width="85" height="85"/>
<rect id="XMLID_59_" x="467.7" y="623.6" width="85" height="85"/>
<rect id="XMLID_58_" x="552.8" y="623.6" class="st0" width="85" height="85"/>
<rect id="XMLID_57_" x="637.8" y="623.6" width="85" height="85"/>
<rect id="XMLID_56_" x="722.8" y="623.6" class="st0" width="85" height="85"/>
<rect id="XMLID_55_" x="807.9" y="623.6" width="85" height="85"/>
<rect id="XMLID_54_" x="892.9" y="623.6" class="st0" width="85" height="85"/>
<rect id="XMLID_53_" x="978" y="623.6" width="85" height="85"/>
<rect id="XMLID_52_" x="1063" y="623.6" class="st0" width="85" height="85"/>
<rect id="XMLID_129_" x="42.5" y="708.7" width="85" height="85"/>
<rect id="XMLID_128_" x="127.6" y="708.7" class="st0" width="85" height="85"/>
<rect id="XMLID_127_" x="212.6" y="708.7" width="85" height="85"/>
<rect id="XMLID_126_" x="297.6" y="708.7" class="st0" width="85" height="85"/>
<rect id="XMLID_125_" x="382.7" y="708.7" width="85" height="85"/>
<rect id="XMLID_124_" x="467.7" y="708.7" class="st0" width="85" height="85"/>
<rect id="XMLID_123_" x="552.8" y="708.7" width="85" height="85"/>
<rect id="XMLID_122_" x="637.8" y="708.7" class="st0" width="85" height="85"/>
<rect id="XMLID_121_" x="722.8" y="708.7" width="85" height="85"/>
<rect id="XMLID_120_" x="807.9" y="708.7" class="st0" width="85" height="85"/>
<rect id="XMLID_119_" x="892.9" y="708.7" width="85" height="85"/>
<rect id="XMLID_118_" x="978" y="708.7" class="st0" width="85" height="85"/>
<rect id="XMLID_117_" x="1063" y="708.7" width="85" height="85"/>
<text id="XMLID_104_" transform="matrix(1 0 0 1 62.6172 818.5703)" class="st1 st2">Checkered Board for Camera Calibration. 30x30mm Squares. 9 x 13. MPI bioKyb, P. Povolni, 02/24</text>
</svg>
